<svg xmlns="http://www.w3.org/2000/svg" width="23.143" height="21.009" viewBox="0 0 23.143 21.009"><path d="M887.887,694.445a1.334,1.334,0,0,0-1.012-.45,1.379,1.379,0,0,0-1.027.45,1.46,1.46,0,0,0-.419,1.051,1.51,1.51,0,0,0,.419,1.065l6.22,6.438H875.3a1.378,1.378,0,0,0-1.027.45,1.457,1.457,0,0,0-.419,1.05,1.511,1.511,0,0,0,.419,1.066A1.4,1.4,0,0,0,875.3,706h16.764l-6.22,6.453a1.459,1.459,0,0,0-.419,1.051,1.511,1.511,0,0,0,.419,1.065,1.4,1.4,0,0,0,1.027.435,1.356,1.356,0,0,0,1.012-.435l8.679-9A1.484,1.484,0,0,0,897,704.5a1.432,1.432,0,0,0-.434-1.05c0-.011,0-.015-.014-.015Z" transform="translate(-873.857 -693.995)" fill="#231f20"/></svg>