<svg xmlns="http://www.w3.org/2000/svg" width="23.143" height="21.009" viewBox="0 0 23.143 21.009"><g transform="translate(-781 -693.995)"><path d="M790.112,694.445a1.334,1.334,0,0,1,1.013-.45,1.379,1.379,0,0,1,1.027.45,1.46,1.46,0,0,1,.419,1.051,1.51,1.51,0,0,1-.419,1.065L785.932,703H802.7a1.378,1.378,0,0,1,1.027.45,1.457,1.457,0,0,1,.419,1.05,1.511,1.511,0,0,1-.419,1.066A1.4,1.4,0,0,1,802.7,706H785.932l6.22,6.453a1.459,1.459,0,0,1,.419,1.051,1.511,1.511,0,0,1-.419,1.065,1.4,1.4,0,0,1-1.027.435,1.357,1.357,0,0,1-1.013-.435l-8.679-9A1.484,1.484,0,0,1,781,704.5a1.432,1.432,0,0,1,.434-1.05c0-.011,0-.015.015-.015Z" fill="#231f20"/></g></svg>