<svg xmlns="http://www.w3.org/2000/svg" width="27.99" height="32.009" viewBox="0 0 27.99 32.009"><path d="M425.211,929a1.187,1.187,0,0,1-1.2-1.2V898.2a1.187,1.187,0,0,1,1.2-1.2h25.576a1.187,1.187,0,0,1,1.2,1.2v29.53a1.165,1.165,0,0,1-1.2,1.277Zm1.2-2.479H449.66v-27.05H426.415Zm16.324-2.63a1.2,1.2,0,1,1,0-2.4h2.783a1.2,1.2,0,1,1,0,2.4Zm-6.244,0a1.2,1.2,0,1,1,0-2.4h2.784a1.2,1.2,0,1,1,0,2.4Zm-6.394,0a1.2,1.2,0,1,1,0-2.4h2.783a1.2,1.2,0,1,1,0,2.4Zm12.638-4.283a1.2,1.2,0,1,1,0-2.4h2.783a1.2,1.2,0,1,1,0,2.4Zm-6.244,0a1.2,1.2,0,1,1,0-2.4h2.784a1.2,1.2,0,1,1,0,2.4Zm-6.394,0a1.2,1.2,0,1,1,0-2.4h2.783a1.2,1.2,0,1,1,0,2.4Zm12.638-4.433a1.2,1.2,0,1,1,0-2.4h2.783a1.2,1.2,0,1,1,0,2.4Zm-6.244,0a1.2,1.2,0,1,1,0-2.4h2.784a1.2,1.2,0,1,1,0,2.4Zm-6.394,0a1.2,1.2,0,1,1,0-2.4h2.783a1.2,1.2,0,1,1,0,2.4Zm-.3-4.658a1.187,1.187,0,0,1-1.2-1.2V903.23a1.187,1.187,0,0,1,1.2-1.2h15.721a1.187,1.187,0,0,1,1.2,1.2v6.086a1.144,1.144,0,0,1-1.2,1.2Zm1.278-2.4h13.316v-3.682H431.078Z" transform="translate(-424.008 -896.993)" fill="#231f20"/></svg>