<svg height="37.594" viewBox="0 0 55.763 37.594" width="55.763" xmlns="http://www.w3.org/2000/svg"><path d="m1224.547 1885.5-13.3-7.491a24.225 24.225 0 0 0 -10.033-2.633h-3.614a5.383 5.383 0 0 1 -5.359-5.374v-5.386a5.382 5.382 0 0 1 5.359-5.374h3.619a24.255 24.255 0 0 0 10.033-2.632l13.3-7.493a4.223 4.223 0 0 1 2.043-.606c1.553 0 2.631 1.233 2.631 3.348v7.521l.02.008a8.791 8.791 0 0 1 -.02 15.833v7.536c0 2.115-1.076 3.348-2.631 3.348a4.218 4.218 0 0 1 -2.048-.605zm-30.7-20.883v5.386a3.761 3.761 0 0 0 3.752 3.762h3.619a25.657 25.657 0 0 1 10.821 2.839l13.3 7.491a2.617 2.617 0 0 0 1.255.4c.889 0 1.022-1.088 1.022-1.736v-30.9c0-.648-.133-1.736-1.022-1.736a2.607 2.607 0 0 0 -1.255.4l-13.3 7.491a25.659 25.659 0 0 1 -10.821 2.839h-3.618a3.762 3.762 0 0 0 -3.755 3.767zm35.375 8.764a7.168 7.168 0 0 0 0-12.159zm13.245 9.809-7.662-6.808a.8.8 0 0 1 1.067-1.206l7.662 6.808a.806.806 0 0 1 -.534 1.409.8.8 0 0 1 -.536-.2zm-4.737-15.075a.805.805 0 0 1 0-1.611h9.468a.805.805 0 0 1 0 1.611zm-2.993-8.739a.809.809 0 0 1 .068-1.139l7.662-6.809a.805.805 0 0 1 1.066 1.207l-7.662 6.809a.8.8 0 0 1 -1.135-.068zm-19.617-.788a.761.761 0 0 1 .3-1.03l7.288-4a.758.758 0 1 1 .725 1.33l-7.287 4a.744.744 0 0 1 -.363.094.755.755 0 0 1 -.666-.39z" fill="#231f20" transform="translate(-1192.237 -1848.516)"/></svg>