<svg height="47.98" viewBox="0 0 50.005 47.98" width="50.005" xmlns="http://www.w3.org/2000/svg"><path d="m452.371 1891.991v-19.491h9.98v19.489zm1.487-1.695h6.795v-16.205h-6.795zm-14.864 1.695v-14.191h9.98v14.193zm1.593-1.695h6.794v-10.909h-6.794zm38.432 1.589v-34.952h9.981v34.952zm1.592-1.589h6.8v-31.775h-6.8zm-14.969 1.589v-23.831h9.979v23.831zm1.592-1.589h6.8v-20.653h-6.8zm-25.267-20.76h-.425l.106-1.589c.319 0 26.117.742 34.079-21.289l-3.716 2.012-.743-1.376 6.158-3.283 3.29 6.142-1.38.742-2.017-3.812c-7.425 20.9-29.952 22.461-34.818 22.461-.212-.001-.392-.004-.534-.008z" fill="#231f20" transform="translate(-438.994 -1844.011)"/></svg>