<svg height="50" viewBox="0 0 49.96 50" width="49.96" xmlns="http://www.w3.org/2000/svg"><g transform="translate(-550.85 -6391)"><ellipse cx="575.83" cy="6416" fill="#fff" rx="24.98" ry="25"/><path d="m570.635 6427.969a6.252 6.252 0 0 1 -6.287-6.2v-10.069a6.251 6.251 0 0 1 6.287-6.2h10.205a6.251 6.251 0 0 1 6.287 6.2v10.07a6.252 6.252 0 0 1 -6.287 6.2zm-4.265-16.269v10.07a4.24 4.24 0 0 0 4.265 4.207h10.205a4.241 4.241 0 0 0 4.265-4.207v-10.07a4.241 4.241 0 0 0 -4.265-4.206h-10.205a4.241 4.241 0 0 0 -4.265 4.206zm3.5 5.037a5.869 5.869 0 1 1 5.869 5.788 5.837 5.837 0 0 1 -5.87-5.791zm2.021 0a3.849 3.849 0 1 0 3.847-3.8 3.827 3.827 0 0 0 -3.848 3.795zm8.916-4.985a1.445 1.445 0 0 1 0-2.068 1.5 1.5 0 0 1 2.1 0 1.449 1.449 0 0 1 0 2.068 1.493 1.493 0 0 1 -2.1 0z" fill="#231f20"/></g></svg>