<svg xmlns="http://www.w3.org/2000/svg" viewBox="0 0 176.01 136.54"><defs><style>.a,.e{fill:#231f20;}.b,.c{fill:none;stroke-linecap:round;stroke-linejoin:round;stroke-dasharray:3 3;}.b,.d{stroke:#fff;}.c,.e{stroke:#231f20;}.d{fill:#fff;}.d,.e{stroke-miterlimit:10;stroke-width:0.42px;}</style></defs><title>logo-aef</title><path class="a" d="M175,91.23,161.91,94a1,1,0,0,0-.74,1.17,1,1,0,0,0,1.19.77l13-3a.86.86,0,0,0,.64-1A.84.84,0,0,0,175,91.23Z"/><polygon class="a" points="139.74 124.71 125.58 129.32 111.79 136.54 105.92 122.26 133.87 110.42 139.74 124.71"/><path class="b" d="M108.46,123.54c8.18-3.42,15.57-6.92,25.3-11"/><path class="c" d="M.5,101.08c35.11-21.2,37.56.46,47.2,17.47"/><path class="d" d="M113,126.47a1.69,1.69,0,0,1,1.25,0,1.42,1.42,0,0,1,.86.8,1.44,1.44,0,0,1,0,1.15,1.66,1.66,0,0,1-.83.86h0l0,0h0l-1.41.6.91,2.14a.23.23,0,0,1,0,.18.22.22,0,0,1-.12.13.19.19,0,0,1-.18,0,.18.18,0,0,1-.12-.12l-2-4.73a.28.28,0,0,1,0-.18.21.21,0,0,1,.13-.13Zm1,2.37a1.25,1.25,0,0,0,.63-.61,1,1,0,0,0,0-.82,1,1,0,0,0-.61-.55,1.2,1.2,0,0,0-.89,0l-1.43.6.83,1.94Z"/><path class="d" d="M118.53,130.2a.24.24,0,0,1-.23-.23v-1.42h0l0-4.13v-.07a0,0,0,0,0,0,0v0h0l.06-.07h.26l0,0,2.94,2.9h0l1,1a.28.28,0,0,1,.07.17.2.2,0,0,1-.07.16.24.24,0,0,1-.08.06.21.21,0,0,1-.25-.05l-.9-.89-2.63,1.12V130a.2.2,0,0,1-.14.21l0,0Zm2.49-3-2.3-2.26,0,3.22Z"/><path class="d" d="M124.23,121.74a1.67,1.67,0,0,1,1.24,0,1.4,1.4,0,0,1,.85.8,1.36,1.36,0,0,1,0,1.05,1.53,1.53,0,0,1-.69.84l1.91,1.66a.19.19,0,0,1,.08.16.18.18,0,0,1,0,.16.24.24,0,0,1-.09.06.21.21,0,0,1-.24,0l-2.07-1.79-1.2.51.9,2.13a.17.17,0,0,1,0,.17.21.21,0,0,1-.13.13.2.2,0,0,1-.17,0,.22.22,0,0,1-.13-.12l-2-4.69a.23.23,0,0,1,0-.18.27.27,0,0,1,.13-.13Zm1.67.93a1,1,0,0,0-.61-.55,1.17,1.17,0,0,0-.88,0l-1.41.6.81,1.92,1.44-.61a1.14,1.14,0,0,0,.62-.6A.94.94,0,0,0,125.9,122.67Z"/><path class="d" d="M130.23,125a.19.19,0,0,1,0,.18.2.2,0,0,1-.12.13.19.19,0,0,1-.18,0,.22.22,0,0,1-.13-.12l-2-4.72a.17.17,0,0,1,0-.17.2.2,0,0,1,.12-.13.19.19,0,0,1,.18,0,.22.22,0,0,1,.13.12Z"/><path class="d" d="M133,121.29a1.85,1.85,0,0,1-1.5.08,1.26,1.26,0,0,1-.7-.73,1.58,1.58,0,0,1,.06-1.24,1.72,1.72,0,0,1,.92-.88,2.26,2.26,0,0,1,1.12-.2,1.39,1.39,0,0,1,1,.53.23.23,0,0,1,.05.17.24.24,0,0,1-.09.16.18.18,0,0,1-.17,0,.19.19,0,0,1-.16-.08.92.92,0,0,0-.74-.36,2,2,0,0,0-.84.16,1.29,1.29,0,0,0-.69.65,1.1,1.1,0,0,0,0,.89.81.81,0,0,0,.45.46,1.41,1.41,0,0,0,1.14-.08.28.28,0,0,1,.18,0,.27.27,0,0,1,.13.13.23.23,0,0,1,0,.18.18.18,0,0,1-.12.12Zm0,2.54a1.43,1.43,0,0,1-1-.53.25.25,0,0,1,0-.17A.24.24,0,0,1,132,123a.25.25,0,0,1,.17,0,.29.29,0,0,1,.15.09.94.94,0,0,0,.75.36,2,2,0,0,0,.84-.16,1.31,1.31,0,0,0,.68-.65,1.11,1.11,0,0,0,0-.89.78.78,0,0,0-.45-.46,1.41,1.41,0,0,0-1.14.08.28.28,0,0,1-.18,0,.27.27,0,0,1-.13-.13.23.23,0,0,1,0-.18.22.22,0,0,1,.12-.13,1.91,1.91,0,0,1,1.51-.06,1.17,1.17,0,0,1,.69.72,1.53,1.53,0,0,1,0,1.24,1.71,1.71,0,0,1-.93.88A2.34,2.34,0,0,1,133,123.83Z"/><path class="e" d="M73.81,31a1.86,1.86,0,0,1-1.41-.52,1.22,1.22,0,0,1-.36-.94,1.57,1.57,0,0,1,.53-1.12,1.68,1.68,0,0,1,1.2-.46,2.32,2.32,0,0,1,1.1.26,1.39,1.39,0,0,1,.74.89.25.25,0,0,1,0,.17.22.22,0,0,1-.14.11.2.2,0,0,1-.18,0,.19.19,0,0,1-.1-.14.94.94,0,0,0-.55-.61,1.86,1.86,0,0,0-.84-.18,1.32,1.32,0,0,0-.88.32,1.16,1.16,0,0,0-.39.81.8.8,0,0,0,.24.6,1.45,1.45,0,0,0,1.08.37.24.24,0,0,1,.23.24A.29.29,0,0,1,74,31a.26.26,0,0,1-.17.07Zm-1,2.31a1.39,1.39,0,0,1-.74-.89.25.25,0,0,1,0-.17.22.22,0,0,1,.14-.11.28.28,0,0,1,.18,0,.25.25,0,0,1,.1.15A1,1,0,0,0,73,33a2,2,0,0,0,.84.17,1.28,1.28,0,0,0,.88-.33,1.12,1.12,0,0,0,.39-.8.83.83,0,0,0-.23-.6A1.45,1.45,0,0,0,73.83,31a.24.24,0,0,1-.23-.24.25.25,0,0,1,.08-.16.2.2,0,0,1,.16-.07,1.86,1.86,0,0,1,1.41.53,1.18,1.18,0,0,1,.36.93,1.53,1.53,0,0,1-.53,1.12,1.73,1.73,0,0,1-1.2.46A2.32,2.32,0,0,1,72.78,33.34Z"/><path class="e" d="M80.75,33.58a.25.25,0,0,1-.12-.13.19.19,0,0,1,0-.18L81.17,32h0l1.58-3.82a.05.05,0,0,0,0,0h0l0,0,0,0h0l.08,0H83l.08,0h0l0,0,0,0h0s0,0,0,0L84.77,32h0l.54,1.31a.19.19,0,0,1,0,.18.24.24,0,0,1-.13.13l-.09,0a.21.21,0,0,1-.21-.15l-.48-1.16H81.54l-.48,1.16a.22.22,0,0,1-.22.15h0Zm3.45-1.76-1.23-3-1.23,3Z"/><path class="e" d="M90.58,28a.21.21,0,0,1,.16.07.24.24,0,0,1,.07.16v4.89h2.53a.19.19,0,0,1,.16.07.23.23,0,0,1,.08.16.23.23,0,0,1-.08.17.19.19,0,0,1-.16.07H90.58a.21.21,0,0,1-.17-.07.22.22,0,0,1-.07-.17V28.24a.2.2,0,0,1,.07-.16A.21.21,0,0,1,90.58,28Z"/><path class="e" d="M101,33.6a2.73,2.73,0,0,1-2-.82,2.7,2.7,0,0,1-.82-2,2.66,2.66,0,0,1,.82-2,2.8,2.8,0,0,1,4,0,2.66,2.66,0,0,1,.82,2,2.8,2.8,0,0,1-2.8,2.8Zm0-5.14a2.34,2.34,0,1,0,1.65,4,2.31,2.31,0,0,0,0-3.29A2.25,2.25,0,0,0,101,28.46Z"/><path class="e" d="M113.15,33.52h0l-3.58-4.61v4.46a.22.22,0,0,1-.07.17.24.24,0,0,1-.16.07.24.24,0,0,1-.24-.24V28.22a.21.21,0,0,1,.16-.22.21.21,0,0,1,.26.07l3.58,4.61V28.22a.22.22,0,0,1,.07-.17.24.24,0,0,1,.16-.07.28.28,0,0,1,.17.07.25.25,0,0,1,.06.17V33.5s0,0,0,0v0h-.27l0,0h0Z"/><path class="e" d="M41.39,60.54a.68.68,0,0,1-.38-.38.75.75,0,0,1,0-.55l1.65-4h0L47.47,44a.49.49,0,0,1,.06-.13l0,0,0-.06.06,0,0,0a.8.8,0,0,1,.25-.11h.27a.85.85,0,0,1,.26.11l.05,0,.06,0s0,0,0,.06.05.06.05,0a1.39,1.39,0,0,1,.06.13l4.8,11.59h0l1.65,4a.66.66,0,0,1,0,.55.65.65,0,0,1-.38.38.6.6,0,0,1-.27.06.65.65,0,0,1-.65-.44l-1.47-3.54H43.79l-1.47,3.54a.66.66,0,0,1-.65.44h-.15ZM51.87,55.2l-3.75-9-3.75,9Z"/><path class="e" d="M60.27,59.89a.65.65,0,0,1-.21.49.63.63,0,0,1-.5.22.74.74,0,0,1-.71-.71V44.35a.72.72,0,0,1,.71-.71.66.66,0,0,1,.5.21.67.67,0,0,1,.21.5Z"/><path class="e" d="M67.08,58.09a8.51,8.51,0,0,1,6-14.52,8.32,8.32,0,0,1,5.19,1.75.73.73,0,0,1,.27.48.68.68,0,0,1-.14.53.72.72,0,0,1-1,.13A6.89,6.89,0,0,0,73.09,45a7.09,7.09,0,0,0-5,12.1,7.09,7.09,0,0,0,9.77.23.76.76,0,0,1,.52-.19.68.68,0,0,1,.5.24.73.73,0,0,1,0,1,8.49,8.49,0,0,1-11.75-.29ZM78,60.38a.64.64,0,0,1-.2-.49V52.37h-6a.76.76,0,0,1-.51-.2.73.73,0,0,1-.21-.51.66.66,0,0,1,.21-.5.74.74,0,0,1,.51-.22h6.67a.7.7,0,0,1,.51.22.69.69,0,0,1,.2.5v8.23a.68.68,0,0,1-.2.49.7.7,0,0,1-1,0Z"/><path class="e" d="M94.68,43.63a.7.7,0,0,1,.7.7V54.77a5.83,5.83,0,0,1-11.65,0V44.33a.69.69,0,0,1,.2-.5.66.66,0,0,1,.5-.2.66.66,0,0,1,.49.2.69.69,0,0,1,.2.5V54.77a4.44,4.44,0,0,0,8.87,0V44.33a.69.69,0,0,1,.2-.5A.64.64,0,0,1,94.68,43.63Z"/><path class="e" d="M101.91,59.89a.71.71,0,0,1-1.42,0V44.35a.71.71,0,0,1,1.42,0Z"/><path class="e" d="M107.93,43.63a.69.69,0,0,1,.5.21.65.65,0,0,1,.2.5V59.19h7.7a.66.66,0,0,1,.5.2.69.69,0,0,1,.21.5.73.73,0,0,1-.21.51.7.7,0,0,1-.5.2h-8.4a.68.68,0,0,1-.71-.71V44.34a.69.69,0,0,1,.2-.5A.73.73,0,0,1,107.93,43.63Z"/><path class="e" d="M121.21,43.63a.67.67,0,0,1,.5.21.66.66,0,0,1,.21.5V59.19h7.69a.66.66,0,0,1,.5.2.69.69,0,0,1,.21.5.73.73,0,0,1-.21.51.7.7,0,0,1-.5.2h-8.4a.72.72,0,0,1-.5-.2.73.73,0,0,1-.21-.51V44.34a.66.66,0,0,1,.21-.5A.69.69,0,0,1,121.21,43.63Z"/><path class="e" d="M134.44,60.6a.63.63,0,0,1-.5-.22.65.65,0,0,1-.21-.49V44.28a.67.67,0,0,1,.21-.5.62.62,0,0,1,.5-.21l9.41,0a.66.66,0,0,1,.5.21.68.68,0,0,1,.22.5.67.67,0,0,1-.22.51.65.65,0,0,1-.5.2l-8.7,0v6.38h6.51a.72.72,0,0,1,.71.71.66.66,0,0,1-.21.5.67.67,0,0,1-.5.21h-6.51v6.38h8.7a.67.67,0,0,1,.5.22.72.72,0,0,1-.5,1.21Z"/><path class="e" d="M48.86,89.6a.63.63,0,0,1-.5-.22.65.65,0,0,1-.21-.49V73.28a.67.67,0,0,1,.21-.5.62.62,0,0,1,.5-.21l9.41,0a.66.66,0,0,1,.5.21.68.68,0,0,1,.22.5.67.67,0,0,1-.22.51.65.65,0,0,1-.5.2l-8.7,0v6.38h6.51a.72.72,0,0,1,.71.71.66.66,0,0,1-.21.5.67.67,0,0,1-.5.21H49.57v6.38h8.7a.67.67,0,0,1,.5.22.72.72,0,0,1-.5,1.21Z"/><path class="e" d="M74.81,89.35h0v0l-10.85-14V88.89a.71.71,0,0,1-1.42,0V73.27a.71.71,0,0,1,1.27-.44l10.86,14V73.27a.7.7,0,0,1,.7-.71.69.69,0,0,1,.51.21.69.69,0,0,1,.2.5V88.93A.15.15,0,0,1,76,89a.13.13,0,0,1,0,.06.15.15,0,0,1,0,.07.14.14,0,0,1,0,.06.09.09,0,0,1,0,.06s0,0,0,.06,0,0,0,.06l0,0,0,0s0,0,0,0l0,0-.07,0-.05,0-.08,0,0,0H75.2l0,0-.1,0s0,0,0,0l-.09,0,0,0,0,0Z"/><path class="e" d="M88,88.89a.72.72,0,0,1-1.43,0V73.28a.65.65,0,0,1,.22-.5.62.62,0,0,1,.49-.21l9.42,0a.66.66,0,0,1,.5.21.7.7,0,0,1,.21.5.69.69,0,0,1-.21.51.65.65,0,0,1-.5.2L88,74v6.38h6.51a.69.69,0,0,1,.5.21.67.67,0,0,1,.21.5.66.66,0,0,1-.21.5.69.69,0,0,1-.5.21H88Z"/><path class="e" d="M100.77,89.6a.75.75,0,0,1-.72-.71V73.28a.65.65,0,0,1,.22-.5.62.62,0,0,1,.5-.21l9.41,0a.67.67,0,0,1,.5.21.7.7,0,0,1,.21.5.69.69,0,0,1-.21.51.66.66,0,0,1-.5.2l-8.7,0v6.38H108a.69.69,0,0,1,.5.21.67.67,0,0,1,.21.5.66.66,0,0,1-.21.5.69.69,0,0,1-.5.21h-6.51v6.38h8.7a.68.68,0,0,1,.5.22.69.69,0,0,1,0,1,.65.65,0,0,1-.5.22Z"/><path class="e" d="M118.12,74h-4.69a.68.68,0,0,1-.71-.7.7.7,0,0,1,.2-.5.69.69,0,0,1,.51-.21h10.78a.72.72,0,0,1,.71.71.7.7,0,0,1-.71.7h-4.68V88.89a.68.68,0,0,1-.71.71.7.7,0,0,1-.5-.2.72.72,0,0,1-.2-.51Z"/><path class="e" d="M128.26,89.6a.63.63,0,0,1-.5-.22.66.66,0,0,1-.22-.49V73.28a.68.68,0,0,1,.22-.5.62.62,0,0,1,.5-.21l9.41,0a.66.66,0,0,1,.5.21.7.7,0,0,1,.21.5.69.69,0,0,1-.21.51.65.65,0,0,1-.5.2L129,74v6.38h6.51a.69.69,0,0,1,.5.21.67.67,0,0,1,.21.5.66.66,0,0,1-.21.5.69.69,0,0,1-.5.21H129v6.38h8.7a.67.67,0,0,1,.5.22.69.69,0,0,1,0,1,.63.63,0,0,1-.5.22Z"/><path class="a" d="M108.7,68.92a.75.75,0,0,1-.29-.06l-3.16-1.64-3.17,1.64a.64.64,0,0,1-.85-.28.62.62,0,0,1,.27-.84L105,66a.66.66,0,0,1,.58,0L109,67.74a.62.62,0,0,1-.29,1.18Z"/><path class="a" d="M142.56,99.07a1.07,1.07,0,0,0-1.28-.82L19.91,123.47A2.51,2.51,0,1,0,21,128.38l120.75-28A1.07,1.07,0,0,0,142.56,99.07ZM61.33,116.88c.06.27-.22.55-.61.64l-30.95,7c-.56.12-1.09-.08-1.17-.45s.31-.79.87-.91l31-6.55C60.9,116.48,61.28,116.62,61.33,116.88Z"/><polyline class="c" points="158.41 102.29 158.41 29.78 92.96 0.5 27.51 29.78 27.51 88.17"/><path class="c" d="M135.57,111.83c7.34-3,15-6.1,22.58-9"/><path class="c" d="M49.38,122.1c4.56,8,15,13.44,27.43,12.38,4.78-.41,15.69-4.93,28.56-10"/></svg>