<svg viewBox="0 0 148.01 185.73" xmlns="http://www.w3.org/2000/svg"><path d="m74 0a74 74 0 1 0 74 74 74.08 74.08 0 0 0 -74-74zm0 146a72 72 0 1 1 72-72 72.11 72.11 0 0 1 -72 72zm0-139.43a67.42 67.42 0 1 0 67.45 67.43 67.5 67.5 0 0 0 -67.45-67.43zm0 133.86a66.44 66.44 0 1 1 66.46-66.43 66.52 66.52 0 0 1 -66.46 66.43zm-50.42-78.14 1.58.54 1.56.5a7.79 7.79 0 0 0 2.11.32 5.19 5.19 0 0 0 1.94-.36 4.52 4.52 0 0 0 2.54-3 5.54 5.54 0 0 0 .26-2.82 4.35 4.35 0 0 0 -1-2.09 4.59 4.59 0 0 0 -1.7-1.18.62.62 0 0 0 -.58 0 .71.71 0 0 0 -.33.41l-.11.33a.7.7 0 0 0 .39.86 3.28 3.28 0 0 1 1.58 1.67 3.63 3.63 0 0 1 -.13 2.25 3 3 0 0 1 -1.56 1.94 4.19 4.19 0 0 1 -2.93 0c-.34-.1-.84-.25-1.49-.47l-1.43-.49a4.26 4.26 0 0 1 -2.38-1.73 3 3 0 0 1 -.1-2.48 3.69 3.69 0 0 1 1.2-1.92 3.27 3.27 0 0 1 2.25-.4.67.67 0 0 0 .83-.46l.11-.33a.69.69 0 0 0 0-.51.67.67 0 0 0 -.44-.37 4.73 4.73 0 0 0 -2.09-.07 4.33 4.33 0 0 0 -2.07 1.06 5.57 5.57 0 0 0 -1.48 2.42 4.55 4.55 0 0 0 .25 3.94 6.08 6.08 0 0 0 3.22 2.44zm13.09-11.76a.75.75 0 0 0 .46.17h.07a.67.67 0 0 0 .48-.28l.19-.24a.76.76 0 0 0 .15-.54.69.69 0 0 0 -.28-.48l-3.74-2.9 1.9-2.46 5.44.79a1.89 1.89 0 0 0 .57 0 .88.88 0 0 0 .53-.36l.13-.17a.65.65 0 0 0 .13-.51.69.69 0 0 0 -.26-.44.76.76 0 0 0 -.34-.15l-5.33-.79a3.57 3.57 0 0 0 .11-2.11 4.07 4.07 0 0 0 -1.55-2.15 3.83 3.83 0 0 0 -3.13-.91 4.63 4.63 0 0 0 -2.75 1.89l-2.45 3.26a.65.65 0 0 0 -.14.55.76.76 0 0 0 .29.46zm-5.89-10.48a3.08 3.08 0 0 1 1.72-1.28 2.1 2.1 0 0 1 1.75.54 2.14 2.14 0 0 1 1 1.56 3.07 3.07 0 0 1 -.8 2l-1.81 2.34-3.64-2.82zm10.88-13.41a.59.59 0 0 0 .35-.12l.22-.14a1.48 1.48 0 0 0 .31-.27 1.16 1.16 0 0 0 .17-.37l.69-2.46a.59.59 0 0 0 -.1-.46.64.64 0 0 0 -.42-.31.67.67 0 0 0 -.49.11l-.67.45a1 1 0 0 0 -.38.37 1.16 1.16 0 0 0 -.12.51l-.16 1.91a.68.68 0 0 0 .11.48.59.59 0 0 0 .49.3zm4.78 13a.78.78 0 0 0 .45.33h.11a.72.72 0 0 0 .4-.12l5.81-3.88a.72.72 0 0 0 .2-1l-.15-.23a.77.77 0 0 0 -.46-.33.67.67 0 0 0 -.56.12l-4.94 3.29-2.3-3.56 4.51-3a.74.74 0 0 0 .31-.45.76.76 0 0 0 -.11-.56l-.19-.25a.68.68 0 0 0 -1-.22l-4.52 3.02-2.25-3.37 4.83-3.22a.74.74 0 0 0 .31-.45.76.76 0 0 0 -.11-.56l-.16-.2a.73.73 0 0 0 -.45-.33.71.71 0 0 0 -.56.12l-5.7 3.79a.68.68 0 0 0 -.3.49.74.74 0 0 0 .13.53zm11.07-6.12a.66.66 0 0 0 .35.11h.16l.34-.09a.69.69 0 0 0 .42-.3.81.81 0 0 0 .12-.35l.28-2.91 5.57-1.47 1.68 2.39a1 1 0 0 0 .28.24.67.67 0 0 0 .51.05l.34-.09a.66.66 0 0 0 .41-.33.7.7 0 0 0 0-.56l-.11-.24-7.29-10.48a.83.83 0 0 0 -.93-.35l-.57.15a.83.83 0 0 0 -.64.77l-1.23 12.75v.26a.64.64 0 0 0 .34.41zm2.49-11.83 3.69 5.24-4.3 1.14zm11.66-2.69 3.15.11-.37 11.06a.72.72 0 0 0 .18.52.69.69 0 0 0 .5.23h.35a.75.75 0 0 0 .49-.19.74.74 0 0 0 .23-.51l.37-11.06 3.13.1a.69.69 0 0 0 .52-.18.7.7 0 0 0 .23-.52v-.27a.73.73 0 0 0 -.17-.54.71.71 0 0 0 -.53-.23l-8-.27a.62.62 0 0 0 -.53.21.75.75 0 0 0 -.21.54v.27a.7.7 0 0 0 .18.53.65.65 0 0 0 .48.2zm13.86 13.49.32.1h.22a.69.69 0 0 0 .34-.09.75.75 0 0 0 .32-.45l3.34-11.61a.73.73 0 0 0 0-.55.67.67 0 0 0 -.44-.34l-.32-.1a.74.74 0 0 0 -.55.06.76.76 0 0 0 -.33.45l-3.42 11.64a.72.72 0 0 0 0 .55.67.67 0 0 0 .52.34zm10.48 4.78a5.36 5.36 0 0 0 2.77.89c1.59 0 3-1 4.27-2.92.4-.62.68-1.05.84-1.31l.78-1.34a5.9 5.9 0 0 0 .9-4.15 5.27 5.27 0 0 0 -6.09-3.71 5.9 5.9 0 0 0 -3.27 2.7c-.2.31-.48.75-.83 1.32s-.61 1-.79 1.34c-1.78 3.1-1.3 5.52 1.42 7.18zm.13-6.37c.18-.32.42-.73.74-1.24s.56-.92.76-1.23a4.33 4.33 0 0 1 2.28-1.95 2.76 2.76 0 0 1 .75-.1 3.23 3.23 0 0 1 1.67.51 2.94 2.94 0 0 1 1.47 2 4.32 4.32 0 0 1 -.69 2.92c-.36.64-.6 1.06-.73 1.25s-.38.61-.78 1.22a4.3 4.3 0 0 1 -2.27 2 3.34 3.34 0 0 1 -3.9-2.38 4.29 4.29 0 0 1 .71-3zm8.48 12.4a.7.7 0 0 0 .16.53l.2.25a.73.73 0 0 0 .48.27.68.68 0 0 0 .54-.16l7.06-5.67-3.66 10.48a.73.73 0 0 0 .12.73l.24.31a.69.69 0 0 0 .5.26.76.76 0 0 0 .48-.18l9.4-7.54a.72.72 0 0 0 .29-.49.68.68 0 0 0 -.17-.55l-.19-.24a.67.67 0 0 0 -.51-.27.86.86 0 0 0 -.52.18l-7.03 5.66 3.68-10.5a.76.76 0 0 0 -.11-.73l-.23-.29a.69.69 0 0 0 -.51-.26.76.76 0 0 0 -.51.18l-9.41 7.55a.79.79 0 0 0 -.29.48zm15.25 13.58c0 1.06 0 1.87-.05 2.41a2.81 2.81 0 0 1 -.33 1.21 1.36 1.36 0 0 1 -.78.61 1.81 1.81 0 0 1 -1.7-.11 3.77 3.77 0 0 1 -1.29-2 3.48 3.48 0 0 1 -.18-2.29 2.06 2.06 0 0 1 1-1.26.7.7 0 0 0 .36-.87l-.12-.33a.63.63 0 0 0 -.36-.39.65.65 0 0 0 -.53 0 3.21 3.21 0 0 0 -1.44 1.14 4 4 0 0 0 -.7 2 5.82 5.82 0 0 0 .36 2.54 5.45 5.45 0 0 0 2.08 2.9 3.27 3.27 0 0 0 1.82.56 4 4 0 0 0 1.33-.24 3.17 3.17 0 0 0 1.54-1 3.58 3.58 0 0 0 .67-1.64 14.58 14.58 0 0 0 .12-2.48 22 22 0 0 1 .07-2.24 2.56 2.56 0 0 1 .36-1.15 1.51 1.51 0 0 1 .84-.6 1.55 1.55 0 0 1 1.53.16 3.41 3.41 0 0 1 1.12 1.69 3.19 3.19 0 0 1 .13 2 1.77 1.77 0 0 1 -1 1.18.67.67 0 0 0 -.4.44.76.76 0 0 0 0 .45l.12.33a.62.62 0 0 0 .38.41.69.69 0 0 0 .51 0 3.44 3.44 0 0 0 1.38-1.08 3.92 3.92 0 0 0 .76-1.89 5.06 5.06 0 0 0 -.29-2.41 5.38 5.38 0 0 0 -1.21-2 3.57 3.57 0 0 0 -1.74-1 3.4 3.4 0 0 0 -1.94.12 3.7 3.7 0 0 0 -1.56 1 3.34 3.34 0 0 0 -.72 1.58 12.87 12.87 0 0 0 -.13 2.25zm-98.68 28.44a3.07 3.07 0 0 0 1.61-.65 3.38 3.38 0 0 0 .92-1.38 13 13 0 0 0 .58-2.23 19.49 19.49 0 0 1 .49-2 2.37 2.37 0 0 1 .53-1 1.68 1.68 0 0 1 2.21 0 3.24 3.24 0 0 1 .69 1.74 2.92 2.92 0 0 1 -.26 1.8 1.67 1.67 0 0 1 -1.07.89.65.65 0 0 0 -.46.34.71.71 0 0 0 -.08.42l.05.32a.64.64 0 0 0 .27.46.75.75 0 0 0 .49.11 3.2 3.2 0 0 0 1.46-.73 3.59 3.59 0 0 0 1.06-1.57 4.77 4.77 0 0 0 .19-2.26 4.93 4.93 0 0 0 -.72-2.08 3.38 3.38 0 0 0 -1.39-1.25 3.15 3.15 0 0 0 -1.8-.26 3.29 3.29 0 0 0 -1.61.6 3.05 3.05 0 0 0 -1 1.31 11.68 11.68 0 0 0 -.59 2.11c-.19 1-.35 1.69-.5 2.17a2.75 2.75 0 0 1 -.52 1 1.26 1.26 0 0 1 -.81.4 1.63 1.63 0 0 1 -1.46-.44 3.42 3.42 0 0 1 -.8-2 3.26 3.26 0 0 1 .27-2.1 1.86 1.86 0 0 1 1.13-.93.67.67 0 0 0 .5-.75v-.32a.62.62 0 0 0 -.26-.45.71.71 0 0 0 -.5-.12 3 3 0 0 0 -1.58.81 3.8 3.8 0 0 0 -1 1.7 5.46 5.46 0 0 0 -.15 2.38 5 5 0 0 0 1.34 3 3.11 3.11 0 0 0 2.24.89 3.48 3.48 0 0 0 .53.07zm12.08 6.81-.22-.5a.79.79 0 0 0 -.82-.48l-11.85.77-.24.07a.65.65 0 0 0 -.35.36.62.62 0 0 0 0 .5l.13.3a.62.62 0 0 0 .35.34.83.83 0 0 0 .34.07l2.69-.18 2.16 4.84-1.92 1.88a.75.75 0 0 0 -.18.3.64.64 0 0 0 0 .49l.14.3a.62.62 0 0 0 .37.34.78.78 0 0 0 .21 0 .71.71 0 0 0 .33-.09l.21-.14 8.44-8.28a.79.79 0 0 0 .21-.89zm-6.53 4.87-1.66-3.7 5.84-.39zm15.64 9.56a.66.66 0 0 0 .09-.92l-.22-.26a.65.65 0 0 0 -.43-.24.87.87 0 0 0 -.36 0l-9.45 3.67 5.23-8.66a.85.85 0 0 0 .09-.34.68.68 0 0 0 -.16-.46l-.16-.26a.63.63 0 0 0 -.45-.22.67.67 0 0 0 -.51.19l-6.16 10.16a.87.87 0 0 0 .07 1.06l.29.35a.86.86 0 0 0 .67.32 1 1 0 0 0 .36-.07l10.91-4.22zm7 4.22a4.37 4.37 0 0 0 -3.48-.75 5.47 5.47 0 0 0 -3.14 2.4c-.2.28-.46.68-.81 1.19s-.6.92-.78 1.22c-1.77 2.82-1.41 5.09 1.08 6.73a4.75 4.75 0 0 0 2.68.92c1.43 0 2.75-.85 3.94-2.56.39-.56.67-1 .82-1.19l.77-1.22a5.45 5.45 0 0 0 1-3.83 4.41 4.41 0 0 0 -2.06-2.94zm-.37 5.88c-.35.57-.59 1-.71 1.13s-.37.55-.76 1.1a4 4 0 0 1 -2.17 1.73 3.09 3.09 0 0 1 -3.5-2.32 4 4 0 0 1 .75-2.66c.18-.29.42-.67.72-1.13l.75-1.11a4 4 0 0 1 2.17-1.72 2.46 2.46 0 0 1 .6-.07 2.88 2.88 0 0 1 1.6.53 2.71 2.71 0 0 1 1.31 1.86 4 4 0 0 1 -.76 2.66zm9.62-1.06-.29-.11a.62.62 0 0 0 -.53 0 .67.67 0 0 0 -.34.4l-3.86 10.52a.69.69 0 0 0 0 .53.66.66 0 0 0 .4.35l.29.11a.7.7 0 0 0 .25 0 .55.55 0 0 0 .28-.07.71.71 0 0 0 .35-.4l3.83-10.45a.67.67 0 0 0 0-.52.65.65 0 0 0 -.36-.36zm10.21 2.4-3.76-.46a.72.72 0 0 0 -.53.16.73.73 0 0 0 -.23.47l-1.31 11.07a.72.72 0 0 0 .13.52.71.71 0 0 0 .46.26h.29a.67.67 0 0 0 .78-.61l.53-4.32 2.82.34 1.93 4.7a1.57 1.57 0 0 0 .27.47.84.84 0 0 0 .55.26h.2.04a.59.59 0 0 0 .4-.15.64.64 0 0 0 .25-.44.78.78 0 0 0 0-.35l-1.88-4.59a3.34 3.34 0 0 0 1.72-.91 3.81 3.81 0 0 0 1-2.27 3.58 3.58 0 0 0 -.76-2.93 4.29 4.29 0 0 0 -2.9-1.22zm1.92 4a2 2 0 0 1 -.75 1.5 2.85 2.85 0 0 1 -1.94.3l-2.7-.33.51-4.18 2.7.33a2.77 2.77 0 0 1 1.81.75 2 2 0 0 1 .37 1.63zm12.9 1.91a.65.65 0 0 0 -.51-.13l-4.75.65a.64.64 0 0 0 -.47.26.69.69 0 0 0 -.11.52v.23a.7.7 0 0 0 .25.47.62.62 0 0 0 .41.14h.11l4.75-.65a.64.64 0 0 0 .46-.26.76.76 0 0 0 .12-.52v-.23a.71.71 0 0 0 -.26-.47zm13.11-4.63a.73.73 0 0 0 -.37-.4.69.69 0 0 0 -.55 0l-4.59 1.89-1.5-3.66 4.89-2a.68.68 0 0 0 .38-.91l-.1-.23a.72.72 0 0 0 -.37-.41.67.67 0 0 0 -.54 0l-5.81 2.44a.61.61 0 0 0 -.38.39.75.75 0 0 0 0 .53l4.26 10.34a.64.64 0 0 0 .36.38.58.58 0 0 0 .26.06.86.86 0 0 0 .27 0l.27-.12a.67.67 0 0 0 .38-.36.64.64 0 0 0 0-.54l-1.76-4.27 4.6-1.89a.74.74 0 0 0 .38-.36.69.69 0 0 0 0-.55zm15.47-4.28-10-6.26a.79.79 0 0 0 -.94 0l-.44.34a.79.79 0 0 0 -.28.91l3.55 11.34.12.21a.62.62 0 0 0 .43.25h.1a.63.63 0 0 0 .39-.13l.25-.2a.66.66 0 0 0 .26-.42.81.81 0 0 0 0-.35l-.81-2.56 4.14-3.13 2.29 1.43a.8.8 0 0 0 .33.1.64.64 0 0 0 .47-.14l.26-.2a.65.65 0 0 0 .24-.44.72.72 0 0 0 -.17-.52zm-8 1.47-1.75-5.57 5 3.09zm5.14-14.86a.66.66 0 0 0 -1 .09l-.19.24a.64.64 0 0 0 -.16.51.69.69 0 0 0 .27.45l8.68 7.08a.7.7 0 0 0 .45.17.7.7 0 0 0 .47-.26l.19-.23a.67.67 0 0 0 .16-.51.75.75 0 0 0 -.27-.46zm17.21-7.34a.83.83 0 0 0 -.35-.07l-5 .27a3.3 3.3 0 0 0 -.3-1.93 3.79 3.79 0 0 0 -1.82-1.67 3.53 3.53 0 0 0 -3-.25 4.32 4.32 0 0 0 -2.11 2.25l-1.67 3.41a.63.63 0 0 0 0 .55.68.68 0 0 0 .36.37l10 4.92a.66.66 0 0 0 .33.09.94.94 0 0 0 .2 0 .7.7 0 0 0 .4-.36l.13-.26a.68.68 0 0 0 -.32-.93l-3.92-1.92 1.26-2.55 5.07-.29a1.82 1.82 0 0 0 .53-.09.88.88 0 0 0 .43-.44l.08-.18a.58.58 0 0 0 0-.5.66.66 0 0 0 -.25-.4zm-7.35 1.24-1.15 2.49-3.78-1.86 1.2-2.44a2.91 2.91 0 0 1 1.3-1.47 2.45 2.45 0 0 1 2.84 1.39 2.87 2.87 0 0 1 -.36 1.91zm11.34-16.14a.7.7 0 0 0 -.47-.28h-.25a.67.67 0 0 0 -.53.09.65.65 0 0 0 -.29.47l-.87 5.35-3.83-.66.84-4.92a.68.68 0 0 0 -.11-.52.65.65 0 0 0 -.46-.28h-.25a.75.75 0 0 0 -.54.1.68.68 0 0 0 -.28.47l-.84 4.92-3.69-.63.9-5.28a.72.72 0 0 0 -.11-.52.65.65 0 0 0 -.46-.28h-.25a.69.69 0 0 0 -.54.09.65.65 0 0 0 -.28.47l-1.07 6.25a.62.62 0 0 0 .13.53.71.71 0 0 0 .46.26l11 1.88h.22a.61.61 0 0 0 .38-.11.67.67 0 0 0 .29-.45l1.08-6.38a.67.67 0 0 0 -.13-.55zm-60.75-4.8c-2.94 2.47-5.57 5.08-5.43 9.81a7.72 7.72 0 0 0 7.39 7.52 7.25 7.25 0 0 0 4.84-1.85l.08-.07a16 16 0 0 0 3-3.16 126.56 126.56 0 0 1 -9.83-12.23zm.58-4.36c2-1.84 5.69-5.26 5.92-8.56a5.14 5.14 0 0 0 -1.23-4 3.79 3.79 0 0 0 -2.91-1.33 5.17 5.17 0 0 0 -5.16 5.16v.19c0 1.34.51 3.9 3.35 8.53zm3.18-30.31a34.1 34.1 0 1 0 34.16 34.1 34.13 34.13 0 0 0 -34.11-34.08zm16.67 36.74h-3a29.33 29.33 0 0 1 -3.79 9.92c1.64 1.77 3.36 3.58 5.1 5.36a1.44 1.44 0 0 1 0 2 1.5 1.5 0 0 1 -2 0c-1.62-1.66-3.21-3.33-4.72-5a19.08 19.08 0 0 1 -3.22 3.27 10.08 10.08 0 0 1 -6.69 2.53 10.52 10.52 0 0 1 -10.4-10.23c-.19-6.55 3.8-9.89 6.71-12.32-2.76-4.39-4.12-7.94-4-10.54v-.12a8.06 8.06 0 0 1 8-8 6.71 6.71 0 0 1 5.06 2.28 8.09 8.09 0 0 1 2 6.19c-.31 4.4-4.61 8.37-6.93 10.51l-.28.26a117.53 117.53 0 0 0 9.32 11.62 26.81 26.81 0 0 0 2.89-7.65h-3a1.44 1.44 0 0 1 0-2.88h9a1.44 1.44 0 0 1 0 2.88z" fill="#231f20"/><path d="m58 164.94c-.33.07-.5-.16-.65-.79-.33-1.29-.44-1.88-.54-2.32-.37-1.56-.76-2.08-1.43-2.43a4.23 4.23 0 0 0 -3.35 0 .05.05 0 0 0 0 0v.91c.8-.29 2-.47 2.23 1.17v.09a5.69 5.69 0 0 0 -2.35 1 1.94 1.94 0 0 0 .58 3.22 3.13 3.13 0 0 0 3.07-.44 2 2 0 0 0 1.53.57h.91s0 0 0-.1v-.82s0-.06 0-.06zm-3.06-.27c-1.39.81-1.89-1.59-.54-2a.09.09 0 0 1 .09 0l.54 1.93s-.1.05-.14.07zm9.53-5.76a1.17 1.17 0 1 0 -1.47-1.15 1.29 1.29 0 0 0 1.42 1.15zm5.66.08a3.23 3.23 0 0 0 -3.54 3.4 3.54 3.54 0 0 0 1.79 3.21 5 5 0 0 0 3.8.05c.22-.08.21-.13.21-.26v-.81c0-.06 0-.17-.14-.08a3.15 3.15 0 0 1 -1.09.35 1.63 1.63 0 0 1 -1.89-1.31c-.07-.19 0-.17 0-.19s3.73-1.08 3.73-1.08a.24.24 0 0 0 .06-.23 3.11 3.11 0 0 0 -2.98-3.04zm.52 3-1.45.41c-.14 0-.16 0-.17-.13a4.06 4.06 0 0 1 .2-1.61c.31-.68.92-.67 1.25-.2a2.46 2.46 0 0 1 .37 1.28c-.04.26-.21.26-.25.26zm-20 3.06v-3.17c0-1.07.29-2.8-1.7-2.8a2.17 2.17 0 0 0 -2 1s0 0-.05 0c-.39-1.49-2.88-1.29-3.68 0v.06a0 0 0 0 1 -.05 0v-1.14s0 0 0 0l-2.35 1.1a0 0 0 0 0 0 .06 1.13 1.13 0 0 1 .1.44v4.83a1.34 1.34 0 0 1 -.09.48s0 0 0 0h2.27s.06 0 0 0a1.1 1.1 0 0 1 -.09-.48v-3.68a.89.89 0 0 1 .82-.94.66.66 0 0 1 .64.68v3.94a1.34 1.34 0 0 1 -.09.48s0 0 0 0h2.42s.06 0 0 0a1.1 1.1 0 0 1 -.09-.48v-3.68a.88.88 0 0 1 .81-.94.66.66 0 0 1 .65.68v3.94a1.34 1.34 0 0 1 -.09.48s0 0 0 0h2.42s.06 0 0 0a1.1 1.1 0 0 1 -.09-.48zm10.47-5.15-.12.1s0 0 0 0 0-.32 0-.4v-.67s0 0 0 0c-1.45.68-2.51 1.24-2.51 1.24s0 0 0 0a2.45 2.45 0 0 1 .14.58v4.68a1.24 1.24 0 0 1 -.09.48s0 0 0 0h2.46s.06 0 0 0a.8.8 0 0 1 -.09-.48v-3.51c0-1 .9-1.33 1.73-1.15.09 0 .11 0 .13-.09s.31-1.31.35-1.52 0-.14 0-.16a1.71 1.71 0 0 0 -2.06.93zm4.65 5.45v-6.46s-.06 0-.07 0c-1.41.67-2.25 1.1-2.25 1.1-.08 0-.08 0-.09.17v5.2a1.24 1.24 0 0 1 -.09.48s0 0 0 0h2.55s.06 0 0 0a.85.85 0 0 1 -.1-.48zm12.8-.92a3.26 3.26 0 0 1 -.78-2.23c0-2.2 1.5-2.48 2.63-1.84v-1.13a4 4 0 0 0 -2.12-.32 3.46 3.46 0 0 0 -3 3.66c0 2 1.26 4.41 5.23 3.3v-1.16a1.53 1.53 0 0 1 -2.02-.25zm5.09-8s-1.76.83-2.67 1.28c.09.08.28.41.28 1.52v2.8 3.55a1.16 1.16 0 0 1 -.09.33h2.66s-.16-.8-.16-.8-.08-8.68-.08-8.64zm7.34 8.57c-.28 0-.45-.24-.51-.52s-.77-3.57-.77-3.57a2.66 2.66 0 0 0 -1.31-1.74 4.44 4.44 0 0 0 -3.38-.06.06.06 0 0 0 0 .06v.94c.78-.3 2.18-.47 2.3 1.32a4.15 4.15 0 0 1 -.51.1 3.85 3.85 0 0 0 -1.74.72 2 2 0 0 0 .43 3.51 2.92 2.92 0 0 0 3-.41 2 2 0 0 0 1.62.62h.95c.05 0 .06 0 .06-.1v-.78c.02-.04 0-.09-.14-.09zm-3-.32a1 1 0 0 1 -1.13-.05 1.34 1.34 0 0 1 -.32-1.24 1.39 1.39 0 0 1 .92-.94s0 0 0 0l.56 2.14s.06.1.02.12zm5-8.27a1.21 1.21 0 1 0 1.43 1.19 1.33 1.33 0 0 0 -1.43-1.16zm1.25 9v-6.7s0 0 0 0c-1.52.71-2.45 1.2-2.45 1.2s0 0 0 .13v5.39.15a1.24 1.24 0 0 1 -.1.41s0 0 0 0h2.75a0 0 0 0 0 0 0 1 1 0 0 1 -.11-.41zm5.53-4.8c0-.09.31-1.26.35-1.47s0-.15 0-.16a1.73 1.73 0 0 0 -2 .9l-.05.06s-.06 0-.06 0v-1s0 0 0 0l-2.51 1.19s0 0 0 0a2 2 0 0 1 .1.46v4.84.15a.92.92 0 0 1 -.11.4h2.5s0 0 0 0a1 1 0 0 1 -.1-.4v-3.82a1 1 0 0 1 .67-1 2.68 2.68 0 0 1 1.06-.06c.12-.01.14-.03.16-.1zm2.58 2.91s3.76-1.08 3.76-1.08.07-.16.07-.23a3.14 3.14 0 0 0 -3-3.06 3.24 3.24 0 0 0 -3.54 3.41 3.52 3.52 0 0 0 1.78 3.2 4.91 4.91 0 0 0 3.8.06c.22-.08.21-.13.21-.26v-.81c0-.06 0-.17-.14-.08a3.09 3.09 0 0 1 -1.08.35 1.65 1.65 0 0 1 -1.9-1.31c-.05-.2 0-.18.05-.2zm-.11-.92c-.13 0-.16 0-.16-.12a4.09 4.09 0 0 1 .19-1.62.69.69 0 0 1 1.26-.2 2.57 2.57 0 0 1 .36 1.28c0 .25-.15.24-.2.25-.27.08-1.44.4-1.44.4z" fill="#231f20"/><path d="m65 173.46h.17a1.34 1.34 0 0 0 .12.33 1.35 1.35 0 0 0 .58.34c.08-.09.1 0 .17-.08l.15-.2s0-.07 0-.1l.09-.05.12-.29.09-.05c0-.06 0-.13.07-.2l.17-.08c0-.05 0-.11 0-.16a.64.64 0 0 0 0-.43l-.07-.06c0-.11 0-.21 0-.31l-.24-.35h-.08v-.05h-.08v-.11h-.08a.07.07 0 0 1 0-.05h-.08v-.06l-.11-.06-.38.42h-.18v.14c0 .1-.06.21-.08.31l-.18.13v.21h-.09a1.68 1.68 0 0 0 -.11.56h.08zm27.49 0-.3-.57h-.21v-.05h-.12l-.21.39h-.08v.21h-.09c0 .07 0 .19-.11.25h-.13v.26c0 .08 0 .16-.08.25h-.16c-.07.21-.19.24-.26.44h-.08a1 1 0 0 1 0 .16l-.32.22-.1.15a1.2 1.2 0 0 0 -.2 0 .11.11 0 0 1 0 0c0 .19-.09.21-.16.34h-.08c-.14.48-.25.24-.47.47a.94.94 0 0 0 -.06.15l-.14.08-.12.31h-.13l-.06.15-.21.08v.21c-.13 0-.16.1-.3.12a.78.78 0 0 0 0 .16.53.53 0 0 0 -.51.46h-.09l-.09.15h-.09v.05l-.14.09a.77.77 0 0 1 0 .15c-.14.16 0 0-.17.08a.43.43 0 0 1 0 .05h-.22l-.06.15-.26.07c-.07.2-.13.12-.24.23l-.15.25h-.08l-.09.09h-.12v.05h-.08a.11.11 0 0 0 0 .05l-.13.09a.94.94 0 0 0 -.06.15c-.12.12-.1.14-.19.37l-.26.08c-.09.24 0 0-.18.13v.1a.41.41 0 0 0 0 .11l-.14.09v.05c-.11.05-.21 0-.3 0l-.24.29-.26.07v.06h-.16a.41.41 0 0 1 0 .09h-.21v.05h-.17a.11.11 0 0 0 0 0h-.12a.43.43 0 0 0 0 .05h-.12a.13.13 0 0 1 0 .06h-.12a.07.07 0 0 1 0 .05h-.26-.17-.29v.05c-.1 0-.2-.4-.3-.41s0 0 0-.05 0-.12-.19-.18l.06-.15c.14 0 .29 0 .34-.14h.21l.14-.19a.38.38 0 0 1 0-.1l.23-.18s0-.07 0-.1a.68.68 0 0 0 .3-.12s0-.07 0-.11l.09-.09h.13a.34.34 0 0 0 0-.1h.09a.43.43 0 0 1 0-.05h.12l.24-.13s0-.07 0-.1l.19-.14a.88.88 0 0 0 0-.15h.09v-.06h.08l.06-.1h.13a.88.88 0 0 1 0-.16l.13-.09.12-.3a.47.47 0 0 0 0-.1h.09v-.1a1.22 1.22 0 0 0 .4-.53h.17v-.16l.28-.23s0-.07 0-.1l.28-.23s0-.07 0-.1l.14-.09c0-.05 0-.1 0-.15a.94.94 0 0 1 .06-.15h.08c.06-.26.07-.14.2-.29 0-.11 0-.21.08-.31h.09a.71.71 0 0 0 .17-.4h.08c0-.12 0-.24 0-.36l.13-.09a3.35 3.35 0 0 0 0-.84.41.41 0 0 1 -.11-.07c0-.16 0-.13-.06-.21a.07.07 0 0 1 0-.05h-.09s0-.25-.07-.3 0-.06 0-.1a.32.32 0 0 0 -.16 0 .38.38 0 0 1 0-.1c-.1 0-.32-.16-.49-.11v.05h-.08a.43.43 0 0 1 0 .05h-.08c-.17.09-.21.36-.47.34 0 .15-.1.16-.19.23s0 0 0 .06h-.12l-.12.3-.06.1h-.12a.09.09 0 0 1 0 .05.77.77 0 0 1 0 .15h.17a.11.11 0 0 1 0 .05c-.23.05-.12.16-.24.33l-.31.17a1 1 0 0 0 0 .16s0 .07 0 .11h-.08s0 .07 0 .1l-.12-.07-.15.19a1.49 1.49 0 0 0 0 .21l-.19.13v.16l-.31.12v.26a.53.53 0 0 1 -.06.1c-.06.05-.09 0-.17.08s0 .11 0 .16a.57.57 0 0 0 -.07.2c-.16 0-.22.19-.36.27s-.11.18-.16.35a.84.84 0 0 0 -.3.15.88.88 0 0 1 0 .16l-.13.09s0 .06 0 .1h-.09v.05h-.09v.15s0 .06 0 .1l-.09.36h-.09a.64.64 0 0 0 -.16.35h-.53v.36s0 0-.08 0a1.23 1.23 0 0 0 -.16.61.62.62 0 0 0 -.43.42c-.16 0-.23.14-.39.17-.09.23 0 .05-.18.13l-.1.14s0 .07 0 .1l-.34.12-.06.15h-.16c0 .07-.05.13-.07.2h-.21a1.72 1.72 0 0 1 -.07.21h-.2c-.09.24 0 0-.18.14l-.15.19h-.17v.1l-.26.07s0 .07-.05.1h-.17a.11.11 0 0 0 0 0h-.17v.06h-.13-.08a.11.11 0 0 0 0 0h-.12a.43.43 0 0 0 0 .05h-.28c-.06 0-.39.11-.46.05v-.05a.27.27 0 0 0 -.19-.13s0-.11 0-.16a.6.6 0 0 0 .27-.23s0-.07 0-.1.11 0 .17 0a.07.07 0 0 1 0-.05c0-.05 0-.1 0-.15h.08a.13.13 0 0 0 0-.06l.37-.27c0-.05 0-.1 0-.15a.41.41 0 0 1 0-.09h.08a.13.13 0 0 1 0-.06h.08c.09-.25.14-.11.23-.23a1.59 1.59 0 0 0 .07-.2l.13-.09a.09.09 0 0 0 0 0h.08a.09.09 0 0 0 0-.05h.09a.78.78 0 0 1 0-.16h.12c.11-.14.21-.29.3-.43h.09l.12-.35.28-.01a.34.34 0 0 1 0-.1s0-.07 0-.11l.14-.09a.09.09 0 0 1 0 0h.07l.06-.1s0-.07 0-.1a.38.38 0 0 0 0-.1l.09-.05c0-.06 0-.13.07-.2h.09l.06-.2h.13l.12-.35c.12 0 .13-.08.22-.13a2.81 2.81 0 0 0 .08-.31c.12 0 .12 0 .19-.13 0-.06 0-.11 0-.16h.05a.41.41 0 0 1 0-.11c0-.06 0-.11 0-.16s0-.07 0-.11h.13a.43.43 0 0 1 0-.05l.13-.09s0-.07 0-.11 0-.1 0-.16a1.49 1.49 0 0 1 0-.21s0-.1 0-.16a.41.41 0 0 0 0-.11h.09c0-.06 0-.13.07-.2h.09v-.26a1.35 1.35 0 0 0 .06-.52s0-.07 0-.11a.34.34 0 0 0 0-.1.34.34 0 0 1 0-.1c0-.11 0-.13-.06-.22a.11.11 0 0 1 0 0h-.09c-.06-.15-.13-.29-.19-.44a1.2 1.2 0 0 0 -.7 0v.06h-.08a.11.11 0 0 1 0 .05h-.12l-.19.24h-.13-.08a.68.68 0 0 0 -.29.33h-.08c0 .23-.09.21-.17.34s0 0-.12 0c-.12.26-.16.29-.38.37 0 .12-.06.24-.08.36-.22 0-.38.29-.45.58h.37c0 .12 0 .07-.1.14a.07.07 0 0 1 0 0h-.08a1.05 1.05 0 0 0 -.27.55c-.24 0-.14.21-.29.33h-.13v.15l-.13.09s0 .07 0 .1l-.17.09-.15.51h-.08a.74.74 0 0 0 -.28.54h-.17c0 .1 0 .21-.08.31h-.08a.73.73 0 0 0 -.19.5c-.08 0 0 0-.09 0s0 .29-.14.46l-.13.09a.93.93 0 0 0 -.18.45h-.08c0 .24-.11.52-.15.82h-.13a1.49 1.49 0 0 1 0 .21.6.6 0 0 0 -.35.16s0 .07 0 .11l-.13.09a.31.31 0 0 0 0 .1h-.09a.09.09 0 0 1 0 0h-.25l-.1.15c-.1.09-.13 0-.23.18h-.08v.16a.52.52 0 0 0 -.38.05v.1h-.08l-.06.1h-.28l-.11.19h-.28l-.06.09h-.08v.1h-.79c0-.06 0-.11 0-.16a.15.15 0 0 1 .06-.15c0-.19 0-.38.07-.57v-.26c0-.17.07-.34.11-.51h.09l.06-.2h.09c0-.24.09-.48.13-.72l.18-.14c0-.06 0-.13.07-.2.05-.23.11-.45.16-.67l.23-.18c.05-.15.09-.3.14-.45h.09c.11-.13.09-.22.09-.41l.12.07c.11-.22.25-.43.37-.64l.06-.2.32-.27c0-.08.08-.32.13-.41l.24-.18a2.17 2.17 0 0 1 0-.26l.23-.18a1.49 1.49 0 0 1 0-.21l.18-.13.24-.61.18-.13s0-.07 0-.1c0-.12 0-.24.08-.36l.23-.12c.06-.16.12-.31.17-.46h.09l.18-.46a.2.2 0 0 0 .08 0s0-.07 0-.1v-.27l.13-.08s0-.07 0-.11c0-.12.06-.24.08-.36 0-.14 0-.12.15-.14s0-.24.08-.36h.12c0-.24.1-.21.17-.35s0-.11 0-.16 0-.07 0-.11c0-.24.09-.48.13-.72s0-.07 0-.11a2.13 2.13 0 0 0 .1-.83c-.36-.15-.34-.52-.7-.67 0 .06-.12.06-.14.09s0 .07 0 .1c-.1.19.07.18-.15.24a2.38 2.38 0 0 1 -.19.5c0 .14 0 .12-.14.14s-.06.1-.06.1a2.91 2.91 0 0 1 0 .31h-.08s0 .07 0 .11v.31l-.19.14a.77.77 0 0 1 0 .15l-.13.09s0 .07 0 .11h-.09c-.07.18-.13.37-.19.55-.21 0-.11.1-.2.29a.38.38 0 0 1 0 .1v.16l-.18.13a1.7 1.7 0 0 1 0 .22l-.13.09s0 .06 0 .1a.35.35 0 0 0 -.1.09c0 .17-.09.34-.14.5l-.23.13-.09.41-.13.09-.06.15c0 .13-.07.27-.09.41l-.19.13c0 .1 0 .21-.07.31l-.29.75h-.14c-.08-.2-.16-.41-.25-.61h-.08v-.11l-.24-.08a.13.13 0 0 0 0-.06h-.16a.07.07 0 0 0 0 .05h-.15l-.06.09h-.04v.06h-.08l-.28.23v.16a.41.41 0 0 0 0 .11s0 .07 0 .1-.14 0-.2.3c-.2 0-.38.24-.54.35h-.08l-.1.14h-.08l-.2.24a.34.34 0 0 1 0 .1c-.07.08-.2 0-.26.07l-.12.3s-.06 0-.09.1h-.24a1 1 0 0 0 0 .16l-.36.21-.06.16h-.21a.09.09 0 0 1 0 .05 1.32 1.32 0 0 0 -.3.49h-.3a.77.77 0 0 1 0 .15 1 1 0 0 0 -.27.23h-.08a.42.42 0 0 1 -.11.2.09.09 0 0 1 0 .05h-.2l-.06.15h-.16c0 .09 0 0-.06.09v.05h-.17c0 .12-.11.16-.16.3a.54.54 0 0 0 -.34.12c-.17 0 0 0-.14.13l-.06.15c-.17 0-.26.13-.43.15a1 1 0 0 0 0 .16h-.26a2 2 0 0 1 -.34.48.66.66 0 0 1 -.43.11c0 .07 0 .13-.07.2-.22 0-.26.05-.39.16a.47.47 0 0 1 -.05.1h-.08l-.1.09h-.08-.08v.05h-.09l-.52.57-.3.07v.05h-.09v.21a.89.89 0 0 1 -.38.11.13.13 0 0 1 0 .06h-.16s0 .06 0 .1h-.12s0 .07 0 .11h-.13a1.3 1.3 0 0 1 -.1.15h-.08a.41.41 0 0 1 0 .09 2.85 2.85 0 0 1 -.29 0 1.17 1.17 0 0 1 -.3.12c.06-.17.12-.34.19-.5s0-.07 0-.1c0-.12 0-.24 0-.36l.28-.23a.34.34 0 0 0 0-.1c0-.12 0-.25.05-.37l.23-.18.06-.15h.09c0-.17.07-.34.1-.51l.18-.13a.78.78 0 0 0 .17-.39h.08l.08-.26a1.48 1.48 0 0 1 .13-.08v-.26l.14-.09a.78.78 0 0 1 0-.16 1 1 0 0 1 0-.16c0-.05 0-.11 0-.16h.09s0-.07 0-.1l.06-.2.06-.15.14-.08c0-.12 0-.25 0-.37h.09s0-.07 0-.1h.09s0-.07 0-.11l.13-.08c0-.12 0-.25 0-.36l.14-.09c0-.11 0-.21 0-.32s0-.07 0-.1l.09-.05a1.07 1.07 0 0 0 .07-.61v-.21l-.38-.58h-.09c-.06-.08-.17-.25-.35-.2v.05h-.08a.11.11 0 0 0 0 0h-.21l-.1.14h-.08a.71.71 0 0 0 -.1.14h-.08l-.62.66c-.18.17-.35.19-.47.46h.4l-.08.26a.89.89 0 0 0 -.3.06 1.56 1.56 0 0 0 -.14.51.28.28 0 0 0 -.32.23c-.24 0-.26 0-.32.27l-.26.07v.05l-.19.14s0 .07 0 .1l-.32.28a.38.38 0 0 0 0 .1h-.13c0 .13-.07.11-.11.24-.28 0-.19.09-.32.28h-.09a.41.41 0 0 0 0 .11h-.13l-.2.24c-.19.18-.28.09-.39.47-.37 0-.31.18-.5.42a1.2 1.2 0 0 1 -.4.16c0 .1-.07.2-.11.3h-.17c0 .08 0 .17-.08.25a.46.46 0 0 0 -.35.22s0 .06 0 .1l-.18.13s0 .07 0 .11h-.09a.09.09 0 0 1 0 0h-.22c-.21.11-.28 0-.38.32-.13 0-.16.1-.3.12l-.06.21a1.62 1.62 0 0 0 -.64.13l-.24.28a1.23 1.23 0 0 0 0 .48v.37l.07.06s0 .07 0 .1a.44.44 0 0 1 .06.22c.16.06.33.18.52.12 0 0 0 0 0-.06h.17v-.05h.08l.06-.1h.17v-.05h.09s0-.07 0-.11l.42-.36v-.21h.16c0-.16.1-.16.19-.24s0 0 0-.05h.13a.77.77 0 0 1 0-.15 1 1 0 0 0 .7-.7h.17a.27.27 0 0 1 .27-.23c.1-.27.32-.31.47-.47s.11-.16.16-.24h.08l.05-.1h.08a.07.07 0 0 0 0-.05h.08l.1-.14.06-.15s0-.07 0-.11l.09-.09h.08l.06-.15.23-.18a.93.93 0 0 0 0-.1h.09a.47.47 0 0 1 0-.1l.23-.18.06-.2.38-.32s0-.07 0-.11h.09a1.3 1.3 0 0 1 .1-.15h.08l.19-.23.42-.37s0-.07 0-.1l.09-.05.1-.14h.08l.29-.33h.09a.41.41 0 0 0 0-.11l.23-.18a.34.34 0 0 0 0-.1c.1-.13.17-.07.25-.29h.2a.8.8 0 0 1 -.25.39h-.09a.34.34 0 0 0 0 .1s0 .07 0 .1 0 .1 0 .15v.16.15l-.28.23s-.11.35-.13.4 0 0-.09 0a.68.68 0 0 0 -.13.41h.12a.09.09 0 0 1 0 .05 1.33 1.33 0 0 0 -.24.33l-.14.09s0 .08 0 .11c-.08.17 0 .38 0 .48h-.09a1.28 1.28 0 0 0 -.23.54c-.17.05-.05 0-.14.15s0 .07 0 .1a2.53 2.53 0 0 1 -.27.18l-.09.72c-.22 0-.2.22-.31.44s0 .07 0 .11v.32h-.08s0 .07 0 .1l-.13.09a.38.38 0 0 0 0 .1 1.49 1.49 0 0 1 0 .21 1.82 1.82 0 0 0 -.07.25v.43s.09.07.14.17v.21h.08c0 .18.06.26.07.43.19 0 .51.27.76.2v-.05h.12a.93.93 0 0 1 0-.1h.13a.13.13 0 0 1 0-.06.3.3 0 0 1 .17-.08s0-.1 0-.15a1.8 1.8 0 0 1 .43-.11l.06-.15h.08c.06-.18.16-.2.25-.34h.08c0-.05 0-.11 0-.16.19 0 .23-.06.35-.16v-.1c.08-.05.19 0 .26-.08s0-.07 0-.1l.1-.09h.08a1.3 1.3 0 0 1 .1-.15h.08a.09.09 0 0 1 0-.05l.18-.14s0-.07 0-.1l.1-.15h.08a1.21 1.21 0 0 0 .1-.14h.09a.31.31 0 0 1 0-.1h.08.13v-.1h.08l.1-.14h.21c0-.08.1-.16.16-.24h.08l.1-.14h.08c.07-.3.23-.22.38-.37s.2-.33.31-.49h.16c.08-.11.16-.23.25-.34h.16l.24-.28h.16a.34.34 0 0 1 0 .1h-.17a2.91 2.91 0 0 1 0 .31h-.17c0 .1 0 .2-.07.3-.32 0-.15.09-.29.28s-.1 0-.18.14h-.08c-.06.18-.13.36-.19.55h-.09a1.35 1.35 0 0 1 -.5.78 3.53 3.53 0 0 0 -.07.88l.21.29s0 .07 0 .11.19.15.23.32c.22.09.19 0 .52 0 .08-.26.32 0 .51-.13h.15c.18-.2.25-.2.43-.4h.21a.07.07 0 0 1 0 0l.08-.05s0-.07 0-.1a.93.93 0 0 1 .05-.1c.09-.07 0 .05.14-.09h.08s0-.07 0-.1l.18-.14s0-.07 0-.1l.18-.14h.09l.05-.1h.08l.15-.2h.09a.31.31 0 0 1 0-.1h.09v-.05h.17l.3-.38h.08l.24-.29c0-.08 0-.17.08-.25l.13-.09v-.05h.21l.1-.15c.15-.1.16 0 .24-.28h.08l.24-.29a.41.41 0 0 0 0-.11h.13c0 .22-.08.44-.13.67 0 .17 0 .35-.07.52l.11.12v.52l.14.18a1.49 1.49 0 0 0 0 .21c0 .12.11.23.16.34h.09c0 .11.1.22.16.33l.35.21a.07.07 0 0 0 0 0 2.15 2.15 0 0 0 .92 0l.05-.1h.08l.1-.15.43-.1.15-.25h.16a.13.13 0 0 0 0-.06h.08l.06-.1.25-.07.06-.1h.08l.33-.37h.09c.09-.1.19-.21.28-.33h.09v.28c.1-.06.06 0 .14-.09.26.08.29.42.46.59v.1a.37.37 0 0 1 .3.2.35.35 0 0 1 0 .11l.91.06a.31.31 0 0 1 0-.1h.28a1.39 1.39 0 0 0 .15-.19h.13a.47.47 0 0 1 0-.1h.08a.09.09 0 0 1 0-.05l.38-.11.24-.29h.17l.28-.33h.09l.09-.09h.08s0 0 0 0h.08a.07.07 0 0 1 0-.05h.33l.19-.24h.17l.34-.38h.21l.43-.47h.16l.24-.28h.29l.16.34a.34.34 0 0 1 0 .1l.08.06s0 .08 0 .11h.13a.71.71 0 0 1 .24.34c.21 0 .35.18.51.1 0 .2.27.21.29.17s.14.06.25.08a.13.13 0 0 1 0-.06h.17v-.05h.12a.43.43 0 0 1 0-.05h.37l.06-.1h.12a.09.09 0 0 0 0-.05h.37l.15-.2h.08l.06-.1h.08v-.06h.09v-.05h.12l.06-.1h.08l.19-.24.47-.1.1-.14a1.06 1.06 0 0 1 .62-.29.78.78 0 0 0 0-.16h.13a.07.07 0 0 1 0 0h.08a.47.47 0 0 1 0-.1h.08a1.81 1.81 0 0 0 .27-.18.34.34 0 0 0 0-.1l.19-.14v-.05c.08-.05.35-.09.39-.16s0-.19.08-.25h.08l.19-.24h.09c0-.06 0-.13.07-.19h.2c0-.07.12-.33.12-.4s.09 0 .16-.11.16-.11.2-.29h.12a.77.77 0 0 0 0-.15.84.84 0 0 0 .31-.12v-.1h.13a.77.77 0 0 1 0-.15h.08a.13.13 0 0 0 0-.06c.19-.19.39-.2.48-.57h.09l.15-.19h.12s0-.07 0-.11a1.49 1.49 0 0 1 0-.21 1.09 1.09 0 0 1 .36-.22 3.07 3.07 0 0 1 -.1.78v.53s-.11.65-.16 1c0 0-.06.21-.09.22a.13.13 0 0 0 0 .16v.21.32a1.43 1.43 0 0 1 -.16.67h-.25a1 1 0 0 0 -.15-.44h-.08l-.1-.22h.12a.07.07 0 0 0 0-.05c-.08-.07-.09 0-.15-.12h-.33v.05c-.11.08 0 0-.1.14a2.34 2.34 0 0 0 0 .26c0 .28-.09.55-.14.83a1.49 1.49 0 0 0 0 .21.64.64 0 0 0 .28.36 1.72 1.72 0 0 0 .05.26 1.69 1.69 0 0 0 .24.08.13.13 0 0 1 0 .06h.21v.11h.12a.11.11 0 0 1 0 0h.16v.05l.16.07a.36.36 0 0 0 0 .11h.08.08v.11h.14s0 0 0 .06l.16.07a.43.43 0 0 0 0 0h.09a.09.09 0 0 0 0 0h.2v.06c.25 0 .34-.16.52-.25 0-.19 0-.38.07-.57h-.08c0-.37.06-.73.1-1.09 0-.08 0-.17 0-.26l.18-1.14a7.42 7.42 0 0 1 .1-1.38c0-.05 0-.1 0-.16 0-.16 0-.32 0-.47s0-.06 0-.1h.09l.06-.47h.08c.1-.54.21-1.09.32-1.64a1 1 0 0 0 0-.16s0-.07 0-.11c0-.1 0-.2.07-.31h.05c0-.05 0-.11 0-.16 0-.17.09-.34.14-.51l.06-.52zm-9.49 4.75a1.49 1.49 0 0 0 0-.21l.18-.08c0-.07.05-.14.07-.2h.12l.21-.34h.08a.88.88 0 0 1 .07-.2v-.06h.12s0-.07 0-.1 0-.07 0-.1c.09-.15.07-.25.24-.29s0-.12.11-.2a.11.11 0 0 1 0 0h.08l.1-.14h.08v-.1a2.33 2.33 0 0 0 .07-.25h.09v-.1h.13s0-.07 0-.11c.09-.17 0-.14.15-.19.07-.29.11-.17.24-.29s.53-.65.75-.7a.11.11 0 0 1 0-.05h.16a.86.86 0 0 1 -.26.39.2.2 0 0 1 -.08 0c0 .1-.06.21-.08.31l-.06.1h.23c-.06.05 0 .13-.06.21l-.14.08a3.62 3.62 0 0 1 -.13.35c-.15 0-.19.16-.31.23a.78.78 0 0 0 0 .16c-.24.05-.09.07-.2.23l-.31.23-.12.29-.06.1c-.07 0-.12 0-.17 0l-.06.2h-.13l-.2.29-.08-.06v.2c-.23 0-.18.21-.33.33s0 0 0 .05h-.16l-.25.34c-.08 0 0 0-.07-.06h-.05zm-5.55.54c.17 0 .09-.09.23-.18v-.31c.22 0 .11-.06.2-.24l.06-.21c.13 0 .16-.08.2-.23h.08a2.58 2.58 0 0 1 .08-.26c.1-.12.17-.14.21-.34h.08c.09-.15.18-.3.26-.45h.08c0-.19.09-.2.13-.35h.17c0-.07 0-.13.07-.2h.08c0-.12.08-.23.13-.35s.17-.1.3-.12a1 1 0 0 1 0-.16c.15 0 .2-.07.27-.22h.17c0 .1-.06.2-.08.3s-.11.05-.18.14 0 .1 0 .16h-.09v.16.1h-.1a1.4 1.4 0 0 0 -.23.55.85.85 0 0 0 -.31.17s0 .07 0 .11h-.09s0 .06 0 .1-.14.08-.18.14a2.81 2.81 0 0 0 -.08.31.37.37 0 0 0 -.33.32h-.09c-.07.3-.1.14-.24.29s0 .11 0 .16 0 .07 0 .11h-.09v.2l-.27.18a.78.78 0 0 0 0 .16s0 .07 0 .1l-.12.3a.48.48 0 0 0 -.31.17 1.4 1.4 0 0 0 -.01-.61zm-6.18.12s0 .11 0 .16h-.13l-.18.45-.27.23v.2.09h-.21c0 .08-.05.17-.08.25h-.16c0 .14 0 .12-.14.14-.07.21-.17.29-.23.5a.73.73 0 0 0 -.3.12s-.06.21-.12.24h-.16s-.07.2-.11.25l-.06.1c-.08.06 0 0-.13.08h-.08a1 1 0 0 0 0 .16h-.08c-.09.15-.18.29-.26.44h-.17a1.45 1.45 0 0 1 -.11.25h-.2l-.12.3c-.19 0-.16.08-.27.18a.09.09 0 0 0 0 0h-.12a.45.45 0 0 0 0 .11c-.15 0-.18 0-.23.18h-.09l-.06.2h-.2a.75.75 0 0 1 .18-.45h.08a2.17 2.17 0 0 1 0-.25l.21-.08s0-.11 0-.16l.22-.13a2.91 2.91 0 0 0 0-.31l.51-.46a.78.78 0 0 0 0-.16h.09s0 0 .14-.15 0-.07 0-.1l.22-.19v-.2c.15 0 .25-.18.36-.27a.11.11 0 0 0 0 0h.08l.3-.39h.08l.07-.25h.08s0-.07 0-.1l.27-.23a.07.07 0 0 1 0-.05h.12l.25-.39h.09c.06-.27.09-.18.24-.28v-.1h.08l.06-.1h.08v-.05l.14-.09s0-.07 0-.1a.34.34 0 0 0 0-.1h.09s0-.07 0-.11l.1-.15h.08a.11.11 0 0 1 0-.05h.12a.88.88 0 0 0 0-.16l.06-.1h.08l.15-.25c.16-.1.22 0 .36-.21l-.24.6h-.09v.21h-.09c0 .09 0 .17-.07.26s-.12 0-.18.08-.09 0-.14.14h-.08l-.12.3zm8.49-6.5h.25l.4.1v-.05h.08l.06-.15h.09l.06-.15.06-.2s0-.07 0-.11l.13-.08s0 0 0-.06h.08v-.09l.22-.13c0-.11 0-.21 0-.31.36-.06.57-.61.89-.79a1.87 1.87 0 0 0 0-.63l-.07-.06a.31.31 0 0 1 0-.1c0-.11 0-.21 0-.32s0-.06 0-.1a1 1 0 0 1 0-.16h-.33a.91.91 0 0 1 -.17.34h-.09a.41.41 0 0 1 0 .11h-.09a.34.34 0 0 1 0 .1h-.09s0 .07 0 .11l-.13.09s0 .06 0 .1l-.13.09a.34.34 0 0 0 0 .1c-.07.08-.17.11-.24.23h-.08a.82.82 0 0 1 -.17.35h-.13c0 .07 0 .15-.06.2h-.09l-.14.19a.45.45 0 0 0 0 .11v.2l-.18.14a1.11 1.11 0 0 0 0 .63.78.78 0 0 1 -.13.3z" fill="#e81a8c" fill-rule="evenodd"/></svg>