<svg height="165.009" viewBox="0 0 155 165.009" width="155" xmlns="http://www.w3.org/2000/svg"><g transform="translate(-6 -34)"><circle cx="83.5" cy="111.5" fill="#fff" r="77.5"/><path d="m22 111.7a62.787 62.787 0 1 1 62.785 62.7 62.816 62.816 0 0 1 -62.785-62.7zm1.673 0a61.114 61.114 0 1 0 61.108-61.032 61.142 61.142 0 0 0 -61.112 61.032zm3.9 0a57.217 57.217 0 1 1 57.208 57.14 57.243 57.243 0 0 1 -57.214-57.14zm.837 0a56.38 56.38 0 1 0 56.371-56.3 56.4 56.4 0 0 0 -56.381 56.3zm53.749 48.239-.166-.021a.706.706 0 0 1 -.47-.224 1.364 1.364 0 0 1 -.222-.4l-1.644-3.978-2.393-.292-.447 3.666a.581.581 0 0 1 -.223.4.593.593 0 0 1 -.433.112l-.248-.03a.562.562 0 0 1 -.394-.22.594.594 0 0 1 -.106-.436l1.148-9.407a.627.627 0 0 1 .2-.4.554.554 0 0 1 .443-.135l3.194.39a3.692 3.692 0 0 1 2.4 1.1 3.024 3.024 0 0 1 .638 2.485 3.23 3.23 0 0 1 -.833 1.923 2.822 2.822 0 0 1 -1.463.776l1.595 3.889a.65.65 0 0 1 .04.3.557.557 0 0 1 -.205.372.535.535 0 0 1 -.342.125.393.393 0 0 1 -.075.008zm-4.724-6.313 2.291.28a2.421 2.421 0 0 0 1.649-.249 2.056 2.056 0 0 0 .325-2.653 2.408 2.408 0 0 0 -1.542-.637l-2.291-.279zm23.009 3.516a.592.592 0 0 1 -.306-.327l-3.609-8.766a.62.62 0 0 1 -.019-.445.546.546 0 0 1 .321-.333l4.926-2.023a.565.565 0 0 1 .466 0 .6.6 0 0 1 .31.341l.083.2a.576.576 0 0 1 0 .46.587.587 0 0 1 -.325.31l-4.149 1.7 1.274 3.1 3.9-1.6a.573.573 0 0 1 .464-.005.612.612 0 0 1 .312.34l.083.2a.574.574 0 0 1 -.32.77l-3.9 1.6 1.49 3.617a.575.575 0 0 1 -.32.77l-.23.094a.609.609 0 0 1 -.231.046.522.522 0 0 1 -.226-.046zm-32.368-.165-.245-.089a.559.559 0 0 1 -.333-.305.587.587 0 0 1 0-.447l3.271-8.912a.592.592 0 0 1 .294-.34.554.554 0 0 1 .452-.015l.245.09a.562.562 0 0 1 .333.3.593.593 0 0 1 0 .448l-3.271 8.912a.594.594 0 0 1 -.293.34.543.543 0 0 1 -.239.056.6.6 0 0 1 -.22-.034zm20.178-1.273a.588.588 0 0 1 -.212-.392l-.028-.2a.593.593 0 0 1 .1-.436.558.558 0 0 1 .392-.227l4.034-.549a.556.556 0 0 1 .437.113.586.586 0 0 1 .213.394l.028.2a.6.6 0 0 1 -.1.438.565.565 0 0 1 -.391.225l-4.034.549a.637.637 0 0 1 -.09.007.541.541 0 0 1 -.355-.119zm-30.407-3.704c-2.11-1.393-2.417-3.315-.913-5.708q.229-.373.664-1.029t.688-1.013a4.635 4.635 0 0 1 2.66-2.03 4.164 4.164 0 0 1 4.7 3.106 4.625 4.625 0 0 1 -.832 3.24c-.306.5-.524.842-.652 1.036s-.362.53-.7 1.005c-1.012 1.449-2.13 2.176-3.342 2.176a4.145 4.145 0 0 1 -2.273-.783zm3.406-8.357a3.358 3.358 0 0 0 -1.839 1.461q-.248.352-.637.94t-.616.953a3.374 3.374 0 0 0 -.633 2.258 2.607 2.607 0 0 0 2.972 1.962 3.377 3.377 0 0 0 1.834-1.464q.5-.7.649-.931c.1-.151.3-.473.6-.961a3.348 3.348 0 0 0 .626-2.262 2.3 2.3 0 0 0 -1.092-1.563 2.443 2.443 0 0 0 -1.364-.451 2.214 2.214 0 0 0 -.5.057zm49.512 8.621a.553.553 0 0 1 -.363-.212l-.1-.182-3.009-9.608a.667.667 0 0 1 .233-.769l.371-.287a.675.675 0 0 1 .8-.033l8.515 5.3.159.14a.571.571 0 0 1 .147.437.532.532 0 0 1 -.205.375l-.219.168a.544.544 0 0 1 -.4.12.67.67 0 0 1 -.282-.089l-1.936-1.209-3.563 2.751.683 2.173a.67.67 0 0 1 .017.3.549.549 0 0 1 -.217.355l-.219.17a.527.527 0 0 1 -.324.109.59.59 0 0 1 -.088-.01zm-.3-4.541 2.722-2.1-4.203-2.623zm-62.83-4.971-.249-.3a.736.736 0 0 1 -.062-.895l5.224-8.61a.571.571 0 0 1 .435-.163.523.523 0 0 1 .382.188l.185.221a.543.543 0 0 1 .137.391.678.678 0 0 1 -.078.288l-4.435 7.333 7.987-3.1a.727.727 0 0 1 .3-.031.549.549 0 0 1 .364.2l.187.223a.526.526 0 0 1 .12.408.551.551 0 0 1 -.2.373l-.176.108-9.253 3.577a.911.911 0 0 1 -.313.059.716.716 0 0 1 -.552-.271zm73.662-.533-7.365-6a.592.592 0 0 1 -.225-.386.559.559 0 0 1 .131-.433l.166-.2a.559.559 0 0 1 .4-.215.581.581 0 0 1 .427.142l7.367 6a.592.592 0 0 1 .225.388.56.56 0 0 1 -.132.433l-.166.2a.561.561 0 0 1 -.4.216h-.037a.61.61 0 0 1 -.388-.146zm-65.756-30.496a28.93 28.93 0 1 1 28.927 28.889 28.943 28.943 0 0 1 -28.927-28.889zm20.918-10.623v.1c-.059 2.207 1.1 5.213 3.437 8.937l.008.013-.01.008c-2.471 2.063-5.854 4.888-5.7 10.437a8.922 8.922 0 0 0 8.718 8.747 8.549 8.549 0 0 0 5.673-2.138 16.637 16.637 0 0 0 2.733-2.769l.015-.019.014.016c1.282 1.386 2.63 2.8 4.006 4.211a1.283 1.283 0 0 0 1.729.02 1.225 1.225 0 0 0 .022-1.731c-1.479-1.51-2.935-3.041-4.326-4.547l-.009-.011.008-.013a24.811 24.811 0 0 0 3.212-8.4l2.574-.013a1.222 1.222 0 1 0 0-2.444h-7.606a1.222 1.222 0 1 0 0 2.444h2.553v.021a22.521 22.521 0 0 1 -2.452 6.482l-.011.019-.016-.017a101.006 101.006 0 0 1 -7.9-9.847l-.007-.011.239-.222c1.961-1.811 5.612-5.18 5.88-8.9a6.831 6.831 0 0 0 -1.657-5.244 5.693 5.693 0 0 0 -4.29-1.939 6.834 6.834 0 0 0 -6.837 6.81zm49.682 34.441-8.519-4.172a.622.622 0 0 1 -.31-.318.548.548 0 0 1 .02-.465l1.415-2.883a3.688 3.688 0 0 1 1.831-1.9 3.026 3.026 0 0 1 2.559.213 3.221 3.221 0 0 1 1.546 1.419 2.808 2.808 0 0 1 .254 1.633l4.2-.228a.663.663 0 0 1 .3.059.561.561 0 0 1 .281.314.532.532 0 0 1 -.017.425l-.075.149a.7.7 0 0 1 -.365.369 1.348 1.348 0 0 1 -.449.08l-4.3.245-1.062 2.162 3.32 1.625a.573.573 0 0 1 .271.789l-.109.222a.568.568 0 0 1 -.339.3.574.574 0 0 1 -.166.025.618.618 0 0 1 -.287-.061zm-5.046-8.4a2.4 2.4 0 0 0 -1.108 1.246l-1.016 2.069 3.2 1.57 1.016-2.07a2.4 2.4 0 0 0 .306-1.638 1.671 1.671 0 0 0 -.984-1.031 2.1 2.1 0 0 0 -.915-.245 1.3 1.3 0 0 0 -.5.102zm-78.831 7.894a.525.525 0 0 1 -.314-.284l-.113-.254a.54.54 0 0 1 -.022-.414.672.672 0 0 1 .155-.256l1.632-1.593-1.838-4.108-2.277.153a.771.771 0 0 1 -.3-.055.55.55 0 0 1 -.293-.293l-.112-.251a.527.527 0 0 1 0-.426.562.562 0 0 1 .292-.305l.2-.054 10.057-.658a.678.678 0 0 1 .694.407l.192.427a.668.668 0 0 1 -.157.787l-7.16 7.017-.174.122a.652.652 0 0 1 -.279.069.555.555 0 0 1 -.184-.028zm1.006-7 1.4 3.137 3.544-3.465zm33.371-7.514c-.113-4.009 2.114-6.22 4.607-8.313l.013-.013.01.014a109.026 109.026 0 0 0 8.372 10.351l.01.011-.009.011a13.96 13.96 0 0 1 -2.558 2.683l-.065.056a6.14 6.14 0 0 1 -4.106 1.573 6.548 6.548 0 0 1 -6.275-6.369zm54.66 2.066-9.355-1.587a.616.616 0 0 1 -.387-.218.547.547 0 0 1 -.113-.451l.905-5.3a.569.569 0 0 1 .241-.4.609.609 0 0 1 .455-.082l.212.035a.574.574 0 0 1 .484.68l-.764 4.473 3.1.528.713-4.174a.581.581 0 0 1 .241-.4.605.605 0 0 1 .454-.082l.215.036a.574.574 0 0 1 .483.679l-.713 4.174 3.248.554.782-4.582a.574.574 0 0 1 .242-.4.6.6 0 0 1 .455-.081l.212.036a.572.572 0 0 1 .483.68l-.923 5.405a.567.567 0 0 1 -.238.383.575.575 0 0 1 -.321.094.8.8 0 0 1 -.112.005zm-93.698-2.011a4.256 4.256 0 0 1 -1.143-2.576 4.667 4.667 0 0 1 .128-2.017 3.27 3.27 0 0 1 .868-1.447 2.616 2.616 0 0 1 1.343-.682.564.564 0 0 1 .419.1.546.546 0 0 1 .223.377l.037.274a.567.567 0 0 1 -.431.633 1.6 1.6 0 0 0 -.957.793 2.773 2.773 0 0 0 -.229 1.779 2.914 2.914 0 0 0 .676 1.709 1.414 1.414 0 0 0 1.244.374 1.056 1.056 0 0 0 .688-.338 2.346 2.346 0 0 0 .441-.877c.122-.408.265-1.026.423-1.839a9.824 9.824 0 0 1 .5-1.791 2.6 2.6 0 0 1 .815-1.107 2.861 2.861 0 0 1 1.368-.511 2.713 2.713 0 0 1 1.523.221 2.85 2.85 0 0 1 1.185 1.061 4.243 4.243 0 0 1 .607 1.76 3.992 3.992 0 0 1 -.163 1.914 3.1 3.1 0 0 1 -.9 1.337 2.693 2.693 0 0 1 -1.244.612.6.6 0 0 1 -.41-.09.532.532 0 0 1 -.234-.39l-.037-.274a.613.613 0 0 1 .065-.355.541.541 0 0 1 .393-.284 1.4 1.4 0 0 0 .905-.752 2.5 2.5 0 0 0 .218-1.53 2.668 2.668 0 0 0 -.587-1.47 1.406 1.406 0 0 0 -1.87-.035 2.011 2.011 0 0 0 -.452.815 16.517 16.517 0 0 0 -.41 1.708 11.362 11.362 0 0 1 -.5 1.888 2.9 2.9 0 0 1 -.781 1.168 2.565 2.565 0 0 1 -1.363.555 3.578 3.578 0 0 1 -.473.032 2.63 2.63 0 0 1 -1.888-.736zm44.15-12.092c-2.414-3.924-2.882-6.095-2.849-7.231v-.16a4.385 4.385 0 0 1 4.385-4.374 3.231 3.231 0 0 1 2.466 1.124 4.4 4.4 0 0 1 1.045 3.391c-.2 2.8-3.33 5.692-5.024 7.26l-.012.01zm-37.088-5.828c-.273-.078-.712-.218-1.321-.419s-1.064-.355-1.34-.458a5.219 5.219 0 0 1 -2.743-2.066 3.843 3.843 0 0 1 -.208-3.341 4.634 4.634 0 0 1 1.247-2.04 3.626 3.626 0 0 1 1.758-.9 3.993 3.993 0 0 1 1.774.056.555.555 0 0 1 .374.314.607.607 0 0 1 .013.427l-.094.284a.586.586 0 0 1 -.712.391 2.745 2.745 0 0 0 -1.906.34 3.063 3.063 0 0 0 -1.049 1.6 2.541 2.541 0 0 0 .086 2.105 3.6 3.6 0 0 0 2.013 1.463q.393.144 1.219.417t1.259.4a3.588 3.588 0 0 0 2.489.02 2.543 2.543 0 0 0 1.323-1.64 3.073 3.073 0 0 0 .11-1.908 2.753 2.753 0 0 0 -1.338-1.41.6.6 0 0 1 -.33-.734l.094-.282a.609.609 0 0 1 .276-.343.526.526 0 0 1 .489-.019 3.977 3.977 0 0 1 1.447 1 3.619 3.619 0 0 1 .877 1.767 4.628 4.628 0 0 1 -.215 2.389 3.857 3.857 0 0 1 -2.158 2.561 4.392 4.392 0 0 1 -1.648.3 6.469 6.469 0 0 1 -1.787-.266zm75.9-.717a4.574 4.574 0 0 1 -1.766-2.458 5.013 5.013 0 0 1 -.309-2.148 3.5 3.5 0 0 1 .594-1.711 2.8 2.8 0 0 1 1.258-1.008.593.593 0 0 1 .448.016.571.571 0 0 1 .308.337l.1.281a.592.592 0 0 1 -.306.738 1.74 1.74 0 0 0 -.845 1.06 3 3 0 0 0 .153 1.954 3.171 3.171 0 0 0 1.1 1.667 1.536 1.536 0 0 0 1.416.123 1.156 1.156 0 0 0 .663-.517 2.561 2.561 0 0 0 .275-1.031c.04-.455.053-1.142.041-2.038a10.68 10.68 0 0 1 .131-2 2.8 2.8 0 0 1 .613-1.337 3.048 3.048 0 0 1 1.324-.835 2.884 2.884 0 0 1 1.644-.1 3.039 3.039 0 0 1 1.475.854 4.547 4.547 0 0 1 1.018 1.714 4.308 4.308 0 0 1 .25 2.048 3.317 3.317 0 0 1 -.648 1.6 2.877 2.877 0 0 1 -1.169.914.609.609 0 0 1 -.437 0 .553.553 0 0 1 -.321-.349l-.1-.28a.629.629 0 0 1 -.009-.379.564.564 0 0 1 .34-.371 1.518 1.518 0 0 0 .8-1.007 2.713 2.713 0 0 0 -.107-1.678 2.9 2.9 0 0 0 -.951-1.433 1.54 1.54 0 0 0 -2.013.38 2.185 2.185 0 0 0 -.3.969 18.2 18.2 0 0 0 -.056 1.9 12.25 12.25 0 0 1 -.107 2.1 3.119 3.119 0 0 1 -.563 1.395 2.735 2.735 0 0 1 -1.308.878 3.416 3.416 0 0 1 -1.131.205 2.781 2.781 0 0 1 -1.504-.445zm-67.458-10.118-8.107-6.246a.653.653 0 0 1 -.25-.392.569.569 0 0 1 .116-.467l2.119-2.744a3.966 3.966 0 0 1 2.332-1.6 3.251 3.251 0 0 1 2.642.774 3.461 3.461 0 0 1 1.32 1.82 3.018 3.018 0 0 1 -.093 1.794l4.517.667a.728.728 0 0 1 .287.122.58.58 0 0 1 .224.38.552.552 0 0 1 -.106.429l-.108.142a.738.738 0 0 1 -.453.3 1.443 1.443 0 0 1 -.485-.012l-4.614-.67-1.611 2.082 3.175 2.447a.605.605 0 0 1 .244.413.612.612 0 0 1 -.132.449l-.163.212a.585.585 0 0 1 -.4.235.439.439 0 0 1 -.061 0 .626.626 0 0 1 -.393-.135zm-3.54-9.971a2.621 2.621 0 0 0 -1.453 1.085l-1.535 1.987 3.083 2.378 1.538-1.99a2.616 2.616 0 0 0 .682-1.679 1.824 1.824 0 0 0 -.826-1.318 2.011 2.011 0 0 0 -1.213-.491 1.384 1.384 0 0 0 -.276.028zm65.968 9.756a.57.57 0 0 1 -.427-.221l-.206-.257a.629.629 0 0 1 -.094-.618l3.106-8.865-5.986 4.8a.61.61 0 0 1 -.459.14.617.617 0 0 1 -.406-.231l-.168-.21a.59.59 0 0 1 -.134-.451.622.622 0 0 1 .239-.4l7.983-6.4a.654.654 0 0 1 .438-.151.576.576 0 0 1 .429.223l.2.244a.633.633 0 0 1 .1.619l-3.121 8.9 6-4.81a.676.676 0 0 1 .441-.152.572.572 0 0 1 .427.224l.168.209a.6.6 0 0 1 .143.462.633.633 0 0 1 -.252.412l-7.97 6.393a.659.659 0 0 1 -.412.151zm-53.759-8.774a.619.619 0 0 1 -.382-.275l-5.683-8.5a.654.654 0 0 1 -.112-.45.571.571 0 0 1 .26-.408l4.829-3.218a.61.61 0 0 1 .474-.1.64.64 0 0 1 .389.286l.13.194a.606.606 0 0 1 .1.471.614.614 0 0 1 -.267.382l-4.1 2.731 1.91 2.858 3.826-2.553a.593.593 0 0 1 .472-.1.625.625 0 0 1 .39.287l.13.193a.6.6 0 0 1 -.17.854l-3.821 2.547 2 2.989 4.194-2.8a.6.6 0 0 1 .475-.1.628.628 0 0 1 .387.286l.13.193a.6.6 0 0 1 .1.469.617.617 0 0 1 -.267.384l-4.929 3.285a.6.6 0 0 1 -.337.108.577.577 0 0 1 -.128-.013zm41.679-2.248c-2.318-1.412-2.723-3.46-1.205-6.09q.234-.409.674-1.133t.7-1.12a4.975 4.975 0 0 1 2.775-2.287 4.474 4.474 0 0 1 5.167 3.146 4.972 4.972 0 0 1 -.765 3.512c-.311.545-.531.927-.662 1.141s-.369.586-.714 1.112c-1.059 1.646-2.272 2.471-3.621 2.471a4.545 4.545 0 0 1 -2.353-.751zm3.322-9.148a3.646 3.646 0 0 0 -1.936 1.658q-.254.389-.651 1.038t-.626 1.053a3.656 3.656 0 0 0 -.594 2.476 2.835 2.835 0 0 0 3.308 2.014 3.67 3.67 0 0 0 1.931-1.661q.509-.779.662-1.031t.614-1.061a3.634 3.634 0 0 0 .588-2.478 2.5 2.5 0 0 0 -1.25-1.657 2.693 2.693 0 0 0 -1.417-.437 2.427 2.427 0 0 0 -.634.087zm-35.966 5.938a.579.579 0 0 1 -.263-.351l-.023-.219 1.045-10.804a.7.7 0 0 1 .539-.648l.489-.13a.7.7 0 0 1 .788.3l6.24 8.833.1.2a.6.6 0 0 1 -.039.478.549.549 0 0 1 -.348.276l-.286.076a.569.569 0 0 1 -.431-.045.7.7 0 0 1 -.238-.2l-1.424-2.026-4.728 1.251-.232 2.454a.7.7 0 0 1 -.107.3.565.565 0 0 1 -.353.251l-.286.076a.538.538 0 0 1 -.14.019.569.569 0 0 1 -.303-.091zm1.579-4.591 3.647-.964-3.129-4.444zm22.434 3.829-.27-.077a.578.578 0 0 1 -.369-.292.613.613 0 0 1 -.038-.465l2.832-9.842a.613.613 0 0 1 .28-.376.6.6 0 0 1 .467-.051l.272.079a.577.577 0 0 1 .369.292.61.61 0 0 1 .038.464l-2.832 9.843a.622.622 0 0 1 -.278.374.563.563 0 0 1 -.288.078.656.656 0 0 1 -.182-.026zm-8.824-1.422-.268-.009a.587.587 0 0 1 -.429-.192.612.612 0 0 1 -.149-.444l.315-9.371-2.673-.089a.591.591 0 0 1 -.429-.193.623.623 0 0 1 -.15-.443l.008-.236a.646.646 0 0 1 .172-.43.548.548 0 0 1 .449-.179l6.815.229a.6.6 0 0 1 .444.194.625.625 0 0 1 .148.458l-.007.234a.6.6 0 0 1 -.636.594l-2.658-.09-.318 9.377a.6.6 0 0 1 -.194.438.611.611 0 0 1 -.419.157zm-29.073-3.867a.555.555 0 0 1 -.093-.409l.131-1.622a1.073 1.073 0 0 1 .1-.428.941.941 0 0 1 .319-.316l.569-.379a.548.548 0 0 1 .418-.1.568.568 0 0 1 .361.264.531.531 0 0 1 .084.4l-.583 2.081a1.039 1.039 0 0 1 -.149.311 1.051 1.051 0 0 1 -.258.229l-.187.124a.537.537 0 0 1 -.3.1.5.5 0 0 1 -.412-.255z" fill="#231f20"/><path d="m85.966 186.161a2.933 2.933 0 0 1 2.536-3.108 3.352 3.352 0 0 1 1.795.273v.959c-.96-.547-2.224-.305-2.228 1.557a2.779 2.779 0 0 0 .656 1.893 1.3 1.3 0 0 0 1.678.235v.981a5.859 5.859 0 0 1 -1.572.24 2.762 2.762 0 0 1 -2.865-3.03zm22.22 2.669a2.98 2.98 0 0 1 -1.517-2.715 2.743 2.743 0 0 1 3-2.885 2.651 2.651 0 0 1 2.545 2.587c.005.061 0 .16-.055.194 0 0-3.15.894-3.189.915s-.091 0-.033.162a1.383 1.383 0 0 0 1.6 1.109 2.488 2.488 0 0 0 .92-.293c.146-.076.122.016.122.072v.686c0 .108.008.15-.182.221a4.758 4.758 0 0 1 -1.636.3 3.518 3.518 0 0 1 -1.575-.354zm.717-4.153a3.5 3.5 0 0 0 -.165 1.366c.007.129.029.135.142.108 0 0 .988-.275 1.23-.348.036-.01.179-.005.167-.212a2.126 2.126 0 0 0 -.308-1.089.619.619 0 0 0 -.491-.28.662.662 0 0 0 -.578.454zm-14.255 4.223a1.7 1.7 0 0 1 -.365-2.976 3.217 3.217 0 0 1 1.478-.61c.227-.037.3-.052.431-.084.043-.01.043-.01.043-.027-.1-1.514-1.288-1.374-1.949-1.121 0 0-.038.037-.036-.012s0-.645 0-.8a.049.049 0 0 1 .032-.048 3.754 3.754 0 0 1 2.87.053 2.217 2.217 0 0 1 1.107 1.473s.585 2.729.652 3.025c.053.236.2.443.438.443.094 0 .108.018.108.116v.658s-.005.085-.051.085h-.806a1.745 1.745 0 0 1 -1.372-.524 2.326 2.326 0 0 1 -1.537.561 2.749 2.749 0 0 1 -1.043-.212zm1.725-2.846a1.119 1.119 0 0 0 -.508 1.846.821.821 0 0 0 .958.042c.037-.019.059-.032.046-.074l-.479-1.807s0-.008-.01-.008zm-16.282 2.636a2.983 2.983 0 0 1 -1.515-2.715 2.74 2.74 0 0 1 3-2.885 2.648 2.648 0 0 1 2.547 2.584c.006.064 0 .161-.053.2 0 0-3.153.894-3.193.916s-.09 0-.032.161a1.386 1.386 0 0 0 1.606 1.111 2.6 2.6 0 0 0 .92-.294c.144-.078.122.015.122.07v.685c0 .111.009.15-.181.221a4.787 4.787 0 0 1 -1.642.3 3.511 3.511 0 0 1 -1.579-.349zm.718-4.153a3.454 3.454 0 0 0 -.164 1.364c.007.13.027.136.141.109 0 0 .988-.273 1.231-.347.037-.013.178-.007.167-.212a2.094 2.094 0 0 0 -.308-1.089.615.615 0 0 0 -.489-.28.666.666 0 0 0 -.578.46zm-14.2 4.319a1.648 1.648 0 0 1 -.494-2.732 4.912 4.912 0 0 1 1.992-.823c.029-.007.007-.067.005-.077-.166-1.39-1.215-1.232-1.9-.993 0 0-.035.033-.033-.011s0-.622 0-.773a.05.05 0 0 1 .031-.048 3.643 3.643 0 0 1 2.841.038c.572.292.9.735 1.214 2.063.087.367.185.87.461 1.966.131.528.27.723.553.669.036-.005.036.014.036.046v.695c0 .087 0 .087-.029.085h-.785a1.7 1.7 0 0 1 -1.294-.483 2.314 2.314 0 0 1 -1.565.552 3.129 3.129 0 0 1 -1.028-.169zm1.618-2.685c-1.146.388-.718 2.418.459 1.733.036-.019.09-.059.079-.1l-.465-1.631a.062.062 0 0 0 -.041-.013.1.1 0 0 0 -.027.017zm33.373 2.829h-1.757s-.006-.005 0-.011a.831.831 0 0 0 .093-.346v-.128c0-.7 0-4.143 0-4.568 0-.105.048-.109.048-.109s.789-.414 2.073-1.021a.026.026 0 0 1 .035.027v5.681.118a.825.825 0 0 0 .092.346c0 .005-.006.011-.006.011zm-10.594-.291c.009-1.03.011-2.331.009-3.01v-2.372c0-.938-.163-1.221-.239-1.287.777-.379 2.268-1.083 2.271-1.084 0 .028.006 7.353.006 7.353s.113.679.136.679h-2.255a1.045 1.045 0 0 0 .077-.273zm13.719.279h-1.707s-.008 0-.008-.007a.777.777 0 0 0 .092-.338v-.124c0-.681 0-3.828 0-4.1a1.529 1.529 0 0 0 -.09-.389c-.013-.029.029-.04.029-.04l2.126-1a.023.023 0 0 1 .033.024v.515c0 .074.007.318.007.349a.024.024 0 0 0 .044.016l.041-.049a1.472 1.472 0 0 1 1.742-.767c.072.013.061.036.041.133-.035.185-.274 1.17-.3 1.247s-.032.077-.111.077a2.157 2.157 0 0 0 -.9.057.842.842 0 0 0 -.569.815v3.241a.825.825 0 0 0 .09.338v.007zm-26.813-.024h-2.157s-.042 0-.029-.034a1.088 1.088 0 0 0 .076-.4v-.031c0-.675 0-3.992 0-4.4 0-.108 0-.11.076-.144.04-.02.027-.012.027-.012s.713-.359 1.9-.934c.012 0 .062 0 .062.025v5.476.022a.782.782 0 0 0 .077.4c.014.031-.01.035-.024.035zm-4.045 0h-2.152s-.04 0-.03-.035a1.043 1.043 0 0 0 .076-.4v-.154c0-.675 0-3.545 0-3.817a1.972 1.972 0 0 0 -.119-.486c-.013-.027.029-.038.029-.038s.893-.469 2.125-1.049a.024.024 0 0 1 .033.025v.564c0 .076.009.315.009.347a.024.024 0 0 0 .044.017c.011-.012.024-.029.04-.049a1.455 1.455 0 0 1 1.744-.809c.072.012.061.034.042.13-.035.182-.281 1.216-.3 1.291s-.034.093-.11.077c-.7-.15-1.467.081-1.467.971v2.98a.752.752 0 0 0 .078.4c.013.032-.016.035-.028.035zm-8.786 0h-2.048s-.041 0-.029-.032a1.091 1.091 0 0 0 .074-.408v-3.336a.549.549 0 0 0 -.544-.574.752.752 0 0 0 -.692.8v3.115a.813.813 0 0 0 .077.408c.018.037-.033.032-.033.032h-2.052s-.042 0-.029-.032a1.119 1.119 0 0 0 .076-.408c0-.014 0-.143 0-.143v-3.19a.555.555 0 0 0 -.544-.577.757.757 0 0 0 -.692.8v.247 2.711.154a.848.848 0 0 0 .077.408c.018.037-.032.032-.032.032h-2.055s-.041 0-.028-.032a1.129 1.129 0 0 0 .074-.408v-4.089a.983.983 0 0 0 -.081-.374.04.04 0 0 1 .019-.052s.757-.346 1.994-.931c.012-.007.032 0 .032.025v.508.437a.024.024 0 0 0 .043.017.366.366 0 0 0 .041-.049c.679-1.059 2.79-1.229 3.123.038 0 .021.029.02.042 0a1.832 1.832 0 0 1 1.7-.862c1.687 0 1.444 1.471 1.443 2.377v2.683.271a.8.8 0 0 0 .079.408c.013.03-.016.033-.028.033zm10.5-6.906a1.2 1.2 0 1 1 1.18.97 1.091 1.091 0 0 1 -1.171-.968zm24.22-.11a1.242 1.242 0 1 1 1.22 1.01 1.131 1.131 0 0 1 -1.211-1.008z" fill="#231f20"/><path d="m73.529 199.009a1 1 0 0 1 -.381-.113 1.194 1.194 0 0 0 -.175-.068.858.858 0 0 0 -.029-.166.863.863 0 0 1 -.032-.2l-.053-.005h-.017c-.024-.026-.018-.056-.012-.09a.169.169 0 0 0 0-.089h-.025-.005c-.008-.017-.014-.031-.019-.043a.159.159 0 0 0 -.1-.107c0-.086 0-.172 0-.259v-.007-.091h-.029a1.474 1.474 0 0 1 .037-.144l.021-.072c0-.025.006-.05.009-.076v-.005c0-.031.008-.063.012-.094a.249.249 0 0 0 .036 0v-.01c0-.025.005-.052.01-.079.02-.012.04-.025.061-.039l.054-.035c0-.028.006-.057.01-.087l.037-.018.036-.017c0-.045 0-.09 0-.134s0-.089 0-.133h.017.017v-.03c0-.02.005-.04.007-.059h.023.012a1.257 1.257 0 0 0 .06-.149c.039-.112.068-.194.2-.22.015-.124.03-.246.045-.368v-.017c.009-.076.019-.152.028-.229a2.684 2.684 0 0 0 .23-.149c0-.015 0-.031.005-.047s0-.027 0-.04a.146.146 0 0 0 .034.005.154.154 0 0 0 .033-.081c0-.017 0-.017.068-.033h.02a1.034 1.034 0 0 1 .194-.46.376.376 0 0 1 .077-.039.33.33 0 0 0 0-.149.467.467 0 0 1 .014-.253h.024.012c0-.01 0-.021 0-.032s0-.037.007-.055l.034-.022.081-.054a1.156 1.156 0 0 0 .072-.112.542.542 0 0 1 .137-.172.327.327 0 0 0 .005-.044l.04.005h.03a.566.566 0 0 1 .111-.341l.02-.022c.006-.007.006-.007.012-.007h.006a.192.192 0 0 0 .038-.006c.015-.056.092-.312.112-.344l.236-.194c0-.041.009-.083.016-.127h.023.01c0-.023.006-.045.008-.067s0-.044.008-.066h.02.015c0-.029.008-.058.011-.088l.005-.045a.168.168 0 0 0 .035 0v-.03c0-.02 0-.039.007-.06h.014a.1.1 0 0 0 .021 0c0-.014 0-.028 0-.042s0-.031.005-.047.029-.013.043-.02l.032-.015.044-.045a.519.519 0 0 0 .171-.284l-.088-.011-.085-.011a.262.262 0 0 1 -.122.167.285.285 0 0 0 -.083.073v.045.045c-.047.035-.092.071-.136.107l-.059.047c0 .015 0 .029-.005.044s0 .03-.005.044l-.02.01-.055.024q-.123.143-.246.282l-.068-.008-.043.061-.043.062-.026.013-.048.023c0 .018 0 .035-.006.053v.035l-.121.106-.014.012-.221.194c-.029.034-.058.07-.087.106l-.076.093a.389.389 0 0 1 -.07-.007c-.028.042-.057.084-.085.122l-.025.012-.05.024v.016.03.042c-.106.09-.21.18-.315.272-.019.057-.037.114-.055.17l-.2.156c-.013.026-.029.055-.045.082a.637.637 0 0 0 -.068-.005.874.874 0 0 0 -.045.081c-.051.042-.1.081-.153.121l-.041.032c-.009.02-.017.041-.026.062s-.018.044-.027.065h-.028-.041l-.08.079c0 .028-.007.059-.01.089a.118.118 0 0 0 -.023 0h-.011l-.023.054c-.01.025-.02.049-.031.073a.173.173 0 0 0 -.032 0c-.025.036-.056.079-.085.123h-.013l-.058-.008v.028.018l-.07-.013-.028.053-.017.031-.048-.006h-.021l-.095.148-.038.059a.863.863 0 0 1 -.148.114.53.53 0 0 0 -.249.283.229.229 0 0 0 -.236.192l-.083-.011-.056-.007a.87.87 0 0 1 -.6.593v.039c0 .032-.008.062-.01.094h-.01c-.035.009-.067.018-.1.028v.019.022c-.018.016-.035.029-.049.04a.282.282 0 0 0 -.116.164l-.059-.007c-.03 0-.054-.007-.078-.009-.008.054-.015.109-.022.175l-.1.087c-.087.076-.171.149-.254.224 0 .019-.006.039-.008.058s0 .021 0 .03l-.041.019-.035.017v.025.02l-.04.007c-.036.006-.07.012-.1.019l-.026.05-.018.034a.472.472 0 0 0 -.071-.009v.043l-.144.027a.239.239 0 0 1 -.007.043.286.286 0 0 1 -.092.015.637.637 0 0 1 -.252-.073c-.033-.015-.065-.029-.1-.041a.367.367 0 0 0 -.045-.177v-.008h-.026-.035c0-.015 0-.029 0-.044s0-.03 0-.043-.021-.018-.031-.027-.022-.017-.032-.027c0-.105 0-.206 0-.312h-.035a1.113 1.113 0 0 1 -.021-.4c.08-.1.145-.172.206-.24a1.506 1.506 0 0 1 .54-.112l.023-.069c.012-.036.023-.07.034-.1a.329.329 0 0 0 .136-.052.366.366 0 0 1 .121-.051c.057-.185.106-.2.188-.223a.591.591 0 0 0 .126-.049c0-.015 0-.029.006-.044l.033.005.035.006a.251.251 0 0 0 .006-.046c.025-.011.05-.022.075-.035 0-.023.006-.045.009-.069v-.018l.046-.033c.036-.026.072-.052.107-.08 0-.025.008-.05.011-.073v-.014a.2.2 0 0 1 .032 0 .4.4 0 0 1 .3-.185c.012-.041.038-.125.062-.214l.05-.009c.033-.006.064-.012.094-.019.039-.1.071-.176.1-.253a.924.924 0 0 0 .334-.137.983.983 0 0 0 .106-.161c.064-.115.1-.184.324-.188.061-.227.117-.26.2-.311a.76.76 0 0 0 .128-.091l.069-.086.094-.117.066-.018.044-.012c0-.022 0-.043.008-.064v-.022l.038-.019.038-.019a.554.554 0 0 0 .065-.129c.027-.07.04-.1.163-.1h.044a.4.4 0 0 1 .049-.107.385.385 0 0 0 .047-.1l.06.007h.044c0-.027.007-.056.01-.086.054-.048.11-.095.165-.141l.11-.093.005-.044.005-.044.155-.115c0-.011 0-.022 0-.034v-.01c.051-.013.1-.028.15-.042l.069-.02c.043-.175.059-.24.181-.24a.7.7 0 0 1 .094.008.221.221 0 0 1 .248-.188h.018a1.228 1.228 0 0 1 .124-.431l.032-.011a.572.572 0 0 1 .22-.045c.018-.058.034-.117.051-.176l.012-.041a.37.37 0 0 0 .069.008.609.609 0 0 1 .247-.272 1.036 1.036 0 0 0 .153-.121l.257-.274.006-.006.262-.278a.449.449 0 0 0 .069.007c.029-.04.057-.08.085-.121h.028.041l.085-.121.11-.015.069-.009c0-.014 0-.03 0-.042l.069.006v-.018-.022a.194.194 0 0 1 .054-.008c.108 0 .181.1.229.16l.012.016v.018.024c.02 0 .042.008.069.011l.089.132.237.354-.011.087v.007c0 .028-.007.055-.011.082a.9.9 0 0 1 -.064.525l-.032.016h-.005l-.037.018c0 .014 0 .029-.006.043s0 .029-.006.043h-.005a.107.107 0 0 1 -.03 0c-.01.09-.021.176-.032.265l-.024.016-.091.061c-.008.075-.018.153-.028.231v.007l-.008.067-.052.034-.062.041c0 .015 0 .031-.006.047s0 .029-.006.043c-.021.008-.043.018-.066.029h-.01v.042c0 .015 0 .03-.005.045l-.028.014-.045.022c-.01.072-.019.146-.028.219l-.011.088a1.359 1.359 0 0 1 -.114.074l-.023.058c-.009.023-.019.046-.028.07h-.014-.02c-.019.052-.036.1-.057.171h-.009-.025c-.005.03-.008.059-.011.087l-.04.02-.036.017c0 .045-.009.087-.016.131h-.02-.013l-.016.132h-.023-.011c0 .024-.005.047-.009.071s-.005.042-.008.062l-.06.038-.055.035-.026.216a.6.6 0 0 1 -.058.042l-.057.037-.022.076c-.013.046-.026.092-.039.139a.638.638 0 0 0 -.07-.01.675.675 0 0 1 -.147.337l-.072.036c-.025.108-.047.217-.069.325l-.022.11-.075.036-.016.04-.034.086c-.038.032-.078.063-.117.093l-.077.061c-.007.05-.012.1-.018.149s-.013.107-.02.159h-.019-.015v.035s0 .036-.008.054l-.068.056-.165.136c-.008.055-.014.11-.021.164s-.012.1-.018.143h-.034c0 .015 0 .03-.005.045s0 .029-.005.041h-.021-.014q-.078.213-.158.424a.4.4 0 0 0 .161-.056.5.5 0 0 1 .1-.043l.057.007c.061.008.123.015.185.022.016-.027.032-.057.045-.083l.045.006h.023c.025-.035.056-.076.086-.121h.009c.034-.011.066-.02.1-.029 0-.015 0-.029.006-.043s0-.03.007-.046l.077.01h.012.017c0-.03.005-.061.009-.088.044 0 .086.01.13.017h.009v-.006c0-.013 0-.025 0-.04a.679.679 0 0 0 .225-.105c0-.03.007-.061.011-.092s.006-.056.01-.084l.031-.014.044-.02.005-.044.252-.059c.149-.159.3-.318.445-.479a.624.624 0 0 0 .07.009v-.007c0-.011 0-.024 0-.035h.031.039v-.022-.022l.034.005.035.006.081-.08a.447.447 0 0 0 .068.007.858.858 0 0 0 .046-.085l.03-.026a.316.316 0 0 1 .256-.111h.047c.008-.025.017-.052.026-.079l.031-.091a.486.486 0 0 0 .057 0 .481.481 0 0 0 .3-.091 1.927 1.927 0 0 0 .3-.408l.1-.008.109-.008c0-.03.006-.059.01-.088s0-.032.006-.046a.544.544 0 0 0 .186-.065.579.579 0 0 1 .181-.065v-.009c.014-.036.029-.077.047-.119h.017.017a.131.131 0 0 0 .033-.079c0-.02 0-.021.088-.038a.486.486 0 0 1 .288-.1.654.654 0 0 1 .084-.157.852.852 0 0 0 .057-.093l.07.009.068.008v-.015c0-.009 0-.019 0-.028l.021-.019c.006 0 .006 0 .008-.012a.389.389 0 0 1 .015-.051l.139.015c.011-.026.022-.052.032-.079l.019-.047.084.01.09.011c0-.007 0-.013 0-.019s0-.015 0-.024c.055-.045.063-.071.092-.166h.024l.045.005a.744.744 0 0 1 .234-.193c.006-.044.012-.086.017-.131h.013a.441.441 0 0 0 .056 0l.006-.014a.994.994 0 0 1 .255-.4v-.027-.02l.081-.01.1-.011.014-.036.036-.091.3-.184v-.026c0-.038-.01-.074-.016-.109h.038l.17.021a.176.176 0 0 1 .056-.059.092.092 0 0 0 .024-.021l.006-.015c.033-.08.065-.16.1-.24a.165.165 0 0 1 .083-.016.174.174 0 0 0 .136-.045v-.024c0-.02.005-.042.009-.062h.007.027c.055-.067.11-.133.165-.2l.043.005h.027l.009-.013.076-.11h.015l.052.008a1.613 1.613 0 0 0 .132-.1.771.771 0 0 1 .326-.2c.031-.139.06-.156.1-.177a.205.205 0 0 0 .075-.069c0-.014 0-.029.006-.044s0-.029.006-.044h.019.015v-.024c0-.021 0-.043.009-.064h.01.022c.005-.032.009-.066.013-.1v-.032l.118-.1.118-.1h.028l.04.006v-.009a.319.319 0 0 0 0-.035h.033.036l.02-.035.026-.046h.016a.4.4 0 0 1 .053.006c0-.009 0-.017 0-.025s0-.012 0-.018l.044.005.093.011v.01.033l.136.047.067.023.008.034c.005.02.01.04.014.059h.072c.021 0 .041 0 .06.008.076.176.152.36.216.516l.028-.007.084-.022.116-.293.009-.023.127-.321h.008a.11.11 0 0 0 .027 0l.037-.145.03-.116.048-.036.107-.078.038-.173.038-.174h.036c.015-.038.031-.079.049-.129.038-.023.078-.047.115-.073l.026-.115v-.01c.016-.073.033-.147.05-.221l.095-.056h.007l.087-.051c.022-.074.043-.148.064-.223s.039-.138.06-.207h.009.025a.452.452 0 0 1 .069-.071l.011-.01c0-.028.007-.059.01-.086l.035-.023.08-.053c0-.071-.008-.127-.013-.181l.1-.074.053-.039c.005-.036.01-.073.014-.11v-.022h.006a.085.085 0 0 1 .027 0c0-.018 0-.034.007-.05s0-.025 0-.038h.012.023a.437.437 0 0 0 .043-.133c.011-.058.016-.085.127-.112q.082-.234.163-.472a.567.567 0 0 0 .063-.027l.012-.006c0-.022 0-.045.008-.066v-.022l.057-.038.057-.038c.006-.044.012-.088.017-.132l.078-.058c.025-.019.051-.038.076-.056 0-.031.007-.062.011-.093.007-.057.013-.114.021-.172h.011.023c0-.013 0-.026 0-.04s0-.032.005-.048a.809.809 0 0 0 .075-.036c.011-.079.021-.165.032-.263 0 0 .023 0 .046-.083h.024c.061-.011.061-.011.081-.072l.014-.042a1.648 1.648 0 0 0 .154-.408l.005-.018c.11-.028.109-.039.1-.074a.2.2 0 0 1 .026-.132h.011.023c0-.02 0-.04.007-.059v-.028a.089.089 0 0 1 .041-.027.166.166 0 0 0 .072-.05.649.649 0 0 1 .3.283.663.663 0 0 0 .3.282 1.722 1.722 0 0 1 -.088.7h-.027-.007v.039s0 .033-.005.049h-.015-.02c-.026.151-.054.3-.081.448l-.03.163h-.023-.011c0 .028-.007.059-.01.086h-.029.013c-.006.043-.012.087-.017.131a.507.507 0 0 1 -.055.087.442.442 0 0 0 -.087.207l-.058-.008-.045-.006c-.023.091-.044.182-.065.27l-.007.031-.027.005c-.058.011-.058.011-.079.071l-.015.043h-.018-.017c-.01.043-.021.087-.031.13v.015.006c-.012.05-.025.1-.036.151h-.017-.017l-.008.064v.023c-.039.026-.076.05-.114.074l-.008.062c-.007.053-.013.106-.018.16h-.02-.016v.025.019c0 .015 0 .029-.006.044l-.041.021-.032.015c-.051.127-.1.253-.153.382h-.04-.03l-.029.075c-.041.1-.081.2-.123.307-.074.045-.134.079-.189.109-.023.1-.047.2-.07.3a.158.158 0 0 1 -.037 0v.036s0 .035-.005.052l-.1.074-.054.04-.056.141c-.048.122-.1.244-.145.366l-.045.032c-.036.026-.074.052-.11.081v.027c-.006.05-.013.1-.019.148l-.065.051-.13.1v.069.155l-.057.045-.138.109a.65.65 0 0 0 -.059.18.654.654 0 0 1 -.051.162c-.091.078-.184.156-.275.232l-.015.048c-.013.042-.026.083-.039.123-.032.056-.067.113-.1.171-.073.12-.148.244-.212.372-.019-.013-.04-.025-.059-.036l-.04-.023v.042a.376.376 0 0 1 -.079.3l-.03.015-.043.022c-.04.127-.078.255-.117.382l-.125.1-.071.056c-.039.162-.08.324-.121.486l-.019.075h-.017-.017c-.014.04-.028.081-.041.122l-.016.049-.078.057-.075.055-.046.25q-.033.181-.067.36l-.07.034c-.013.031-.023.06-.032.089l-.028.085-.03.014-.045.02c-.015.078-.031.155-.047.232v.007c-.014.066-.027.131-.04.2h-.035l-.016.131-.011.088h-.01-.024c-.011.089-.022.177-.032.265s-.017.145-.026.216a.131.131 0 0 0 -.052.129.192.192 0 0 1 .035.005l.014.1.005.04c.2 0 .414 0 .667-.005.016-.028.031-.055.045-.083h.044.026l.015-.029.029-.054.114.014.128.015c.028-.05.058-.1.091-.165l.183.021.06.007.025-.046.02-.036a.481.481 0 0 1 .07.008l.044-.084a.321.321 0 0 1 .192-.057 1.293 1.293 0 0 1 .132.009c0-.033.007-.064.011-.1v-.038h.036.034a.2.2 0 0 1 .113-.1.259.259 0 0 0 .082-.048l.084-.125h.068l.146-.011v-.022c0-.008 0-.016 0-.024.025-.011.051-.022.074-.033 0-.021.005-.041.008-.06v-.028l.065-.042.05-.033.011-.087a.554.554 0 0 1 .3-.14v-.014c.007-.056.013-.111.021-.163h.024l.045.006c.031-.257.079-.488.12-.693v-.006c.019 0 .041.006.068.008a.852.852 0 0 1 .153-.38c.03-.022.061-.042.092-.062l.022-.014a.424.424 0 0 0 .043-.181.277.277 0 0 1 .076-.2.282.282 0 0 0 .022-.024s0 0 .009-.005a.187.187 0 0 0 .043-.007.6.6 0 0 1 .157-.423l.042-.021.032-.016.023-.087.045-.172h.024l.12-.022a.606.606 0 0 1 .2-.426l.032-.034c.028-.012.052-.024.074-.035.042-.145.083-.287.123-.432.048-.022.1-.045.148-.07 0-.017.005-.035.008-.052s0-.024 0-.035l.045-.029c.023-.015.045-.03.069-.044 0-.026-.006-.051-.009-.076s-.005-.041-.008-.06l.076-.023.031-.009a.261.261 0 0 0 .086-.137.178.178 0 0 1 .161-.145.834.834 0 0 1 .232-.46l.069.007c0-.015 0-.032 0-.044a.359.359 0 0 1 .036-.029c.021-.016.024-.017.051-.093l.046.007h.022c.051-.212.178-.453.376-.49v-.019c.023-.1.045-.192.07-.284.181-.069.217-.1.318-.316.029.011.044.02.048.027h.014l.042-.01a.691.691 0 0 1 .053-.073.38.38 0 0 0 .09-.221h.03.038a.631.631 0 0 1 .246-.28.617.617 0 0 1 .069.007v-.021-.021l.059.007.045.005.058-.072.105-.13c.035 0 .069.008.1.014 0-.014 0-.029 0-.044h.033.039c0-.007 0-.013 0-.02s0-.016 0-.025a.552.552 0 0 1 .2-.038 1.182 1.182 0 0 1 .266.041c.04.009.081.019.124.027.069.157.119.273.163.377l.057-.027.02-.009a.335.335 0 0 0 -.005.035v.01a.142.142 0 0 1 .034.1.3.3 0 0 0 .013.085h.013.005.017v.015c0 .024-.006.049-.008.073h.008.025v.038c0 .018 0 .034-.006.05h.026.026l-.005.048v.04a.109.109 0 0 0 .035 0 1.015 1.015 0 0 1 -.044.4l-.01.04c-.011.079-.02.149-.027.219l-.028.013-.049.023-.007.023c-.016.05-.032.1-.049.148l-.038.018-.037.018v.007c0 .026-.005.053-.009.079h-.018-.016c0 .034-.009.068-.013.1v.032h-.019-.014v.01c-.008.055-.015.109-.021.165h-.029-.018c-.005.044-.01.087-.014.131h-.024-.012c0 .018-.005.035-.007.051s0 .025 0 .038l-.083.055-.03.02v.028.016l-.111.029v.03c0 .02 0 .039-.007.06h-.033c-.005.03-.008.059-.012.091v.04h-.007a.124.124 0 0 1 -.028 0c0 .014 0 .029-.005.044s0 .029-.006.043h-.031a.424.424 0 0 0 -.011.065c0 .022 0 .043-.008.066a.219.219 0 0 0 -.034 0l-.026.034a.154.154 0 0 1 -.129.078c-.013.049-.025.1-.038.147s-.019.078-.029.115a.356.356 0 0 0 -.071.049.231.231 0 0 1 -.118.059c-.035.1-.071.2-.107.3a.973.973 0 0 1 -.1-.013c-.021.062-.038.115-.055.171h-.008l-.067.03-.028.086-.028.085-.031.015-.044.022v.007c0 .027-.005.054-.01.081h-.015-.019c0 .03-.007.06-.01.087h-.015-.02c-.014.023-.026.045-.038.067l-.009.017-.042-.005h-.024a.243.243 0 0 0 -.005.032v.011l-.037.025-.022.015-.057.038v.025c0 .021 0 .042-.009.062a.14.14 0 0 0 -.033 0v.024c0 .021-.006.041-.008.062l-.087.064-.067.05c-.02.057-.042.115-.063.172l-.046.125h-.032-.038l-.066.1c-.062.09-.125.181-.19.272l-.019.005c-.029.008-.06.017-.089.027l-.011.086-.005.043-.037.018-.037.018v.019a.225.225 0 0 1 0 .026.625.625 0 0 0 -.068-.008v.021.021l-.04.027-.075.05-.055.171a.116.116 0 0 1 -.081.049c-.036.007-.071.014-.119.146h-.05-.019a.2.2 0 0 0 0 .022v.022c-.019 0-.038-.006-.057-.008h-.013c-.014.026-.029.054-.044.084h-.011a.105.105 0 0 1 -.023 0c-.006.042-.011.084-.016.132l-.1.075-.207.154c0 .013 0 .03-.007.044l-.067-.01v.026c0 .035-.009.069-.013.106h-.023-.011v.009.033a.069.069 0 0 1 -.04.012.162.162 0 0 1 -.032 0 .151.151 0 0 0 -.03 0 .051.051 0 0 0 -.043.022v.028c0 .02 0 .039-.008.058a.607.607 0 0 1 -.234.2l.019.136a.244.244 0 0 1 .139.085l.023.024a.27.27 0 0 0 0 .027v.015a.133.133 0 0 0 .075.015 1.463 1.463 0 0 0 .3-.052h.015l.05.007c.064.009.129.018.192.025 0-.007 0-.014 0-.021s0-.015 0-.023c.038.006.071.01.105.013 0-.008 0-.016 0-.024v-.019l.04.006h.028v-.02a.166.166 0 0 0 0-.025l.052.006.052.006a.368.368 0 0 0 .005-.043l.07-.013.074-.014c0-.007 0-.014 0-.022s0-.014 0-.021c.049-.007.1-.018.144-.027.01-.017.02-.035.03-.053l.017-.031.12-.033.1-.027c.015-.027.031-.057.046-.085.049-.01.1-.018.144-.026.041-.055.083-.109.126-.164a.109.109 0 0 1 .055-.02.055.055 0 0 1 .027.007.041.041 0 0 0 .017.007c.011 0 .021-.016.055-.108l.077.01.1.013.014-.046c.015-.044.028-.086.043-.128l.067-.007c.037 0 .073-.008.11-.013l.009-.027c.016-.047.032-.1.048-.143h.034c.034 0 .069.008.1.013l.029-.072.022-.054.131-.044.015-.005.146-.049c0-.019.006-.038.007-.058s0-.021 0-.03h.007a.116.116 0 0 1 .028 0l.086-.122a.1.1 0 0 1 .054-.02.055.055 0 0 1 .026.007.04.04 0 0 0 .017.007c.012 0 .023-.016.057-.108a.475.475 0 0 0 .16-.067.49.49 0 0 1 .173-.07.506.506 0 0 1 .36-.355.961.961 0 0 1 .134-.518.264.264 0 0 0 .022-.024s0 0 .009 0a.209.209 0 0 0 .043-.007c.009-.068.017-.136.025-.205l.012-.1a.564.564 0 0 0 .069.008.528.528 0 0 1 .141-.293l.037-.017.037-.017.029-.12v-.009c.014-.058.028-.115.042-.172h.005a.08.08 0 0 1 .03.006v-.015c0-.027.005-.05.009-.074h.022-.028c0-.022.006-.044.008-.066s0-.043.008-.064l.04-.02.035-.016c0-.008 0-.016 0-.023s0-.013 0-.02l.052-.024.026-.012v-.017c0-.024 0-.048.009-.071l.085-.056.029-.019c-.005-.044-.012-.091-.018-.135a.724.724 0 0 1 .258-.123.536.536 0 0 1 .065-.147.361.361 0 0 1 .188-.253.356.356 0 0 1 .187-.125.426.426 0 0 1 .055-.167h.025.011l-.006-.047c0-.029-.008-.058-.012-.089h.035a.11.11 0 0 1 .089-.048.1.1 0 0 0 .06-.021.707.707 0 0 0 .047-.085.163.163 0 0 0 .034.006c.008-.064.016-.127.023-.19v-.029c.085-.035.173-.07.259-.1 0-.031.006-.061.01-.092l.005-.04.1-.07.058-.043.008-.064c0-.039.009-.075.014-.111a.18.18 0 0 1 .033 0c.043-.054.086-.109.127-.162l.027.014.072.041c0-.01 0-.019 0-.028v-.016h.021.014c0-.024.007-.051.011-.085l.031-.015.044-.021c0-.029.007-.058.01-.089h.012.024c0-.021 0-.041.007-.062s.006-.047.008-.07l.264-.145a.365.365 0 0 0 .061-.146c.015-.068.025-.112.15-.138a.253.253 0 0 0 .005-.045l.051.007.053.007.006-.048v-.029c0-.018.005-.036.007-.055h.015.018c0-.011 0-.021 0-.032v-.012l.053.008.052.008c.008-.018.018-.036.028-.053l.017-.032h.02.014l.018-.044c.029-.071.057-.141.083-.208a.7.7 0 0 1 .08.008h.024a.187.187 0 0 1 0-.02.148.148 0 0 0 0-.025l.036-.026a.279.279 0 0 0 .129-.174h.027a.294.294 0 0 0 .237-.155.414.414 0 0 1 .135-.131.354.354 0 0 1 .068.009v-.011c0-.012 0-.023 0-.033h.041.03c0-.009 0-.019 0-.029v-.015a.23.23 0 0 1 .069-.01.742.742 0 0 1 .271.078c.027.011.05.022.068.028v.026c0 .021 0 .041-.007.063l.026-.01a.248.248 0 0 1 .115-.018v.041s0 .032-.005.046a.336.336 0 0 1 .043.162.283.283 0 0 0 .019.093h.03l.04.005a.217.217 0 0 0 -.005.032v.01c.01.015.018.026.024.034.026.035.028.037.024.151l.066.037.031.018a1.992 1.992 0 0 0 .006.232 1.211 1.211 0 0 1 -.024.478l-.033.022c-.028.019-.054.037-.081.054-.01.072-.019.147-.028.222l-.01.085-.033-.005-.036-.006a.567.567 0 0 1 -.146.34l-.045.02-.03.014c-.017.061-.032.12-.047.18l-.02.08a.119.119 0 0 0 -.023 0h-.011a.325.325 0 0 1 -.083.074c-.036.023-.052.033-.087.171h-.014c-.019 0-.036 0-.055-.007l-.024.058c-.01.025-.019.047-.029.069h-.034c0 .022-.006.043-.008.065s0 .044-.008.065l-.028.019c-.029.019-.057.038-.086.056 0 .029-.007.058-.01.087l-.135.112-.1.083c0 .026-.006.051-.009.078v.01l-.127.106-.108.089v.024c.005.037.01.074.016.11l-.145.027a1 1 0 0 1 -.313.425l-.023.022c-.015.031-.029.059-.044.085h-.027l-.042-.006a.925.925 0 0 1 -.047.083h-.034l-.032.083-.029.073v.01l-.035.088-.07.045-.046.029q-.009.066-.016.132l-.039.01c-.024.006-.046.012-.069.02-.015.024-.027.047-.039.071l-.007.012h-.025-.044a.221.221 0 0 1 0 .027v.019a.688.688 0 0 0 -.07-.012v.015c-.014.038-.029.076-.045.113l-.116.087-.037.028v.032.018l-.005.036h-.007a.112.112 0 0 1 -.027 0l-.021.03c-.021.031-.043.062-.064.094l-.061-.008-.043-.006v.015.027c-.024.012-.046.023-.07.033l-.006.05v.038l-.052.015-.059.017-.078.078c0 .014 0 .029-.006.044s0 .029-.006.044a.6.6 0 0 1 -.257.1v.034s0 .035-.006.053l-.149.119-.046.037v.033s0 .036-.008.052a.249.249 0 0 1 -.034 0l-.057.075-.005.007-.063.082-.053.007-.125.014c-.032.1-.11.107-.193.112a.61.61 0 0 0 -.091.01c-.017.041-.034.084-.05.126.1.032.1.044.114.076a.254.254 0 0 0 .041.079v.011.03c.039 0 .081.088.122.169s.086.17.128.175c0-.007 0-.014 0-.021s0-.015 0-.022l.053.006c.06.007.125.015.189.025a.277.277 0 0 1 0-.036v-.01l.064.008.074.009c0-.007 0-.013 0-.02s0-.014 0-.021h.047l.056.005v-.012a.235.235 0 0 1 0-.031c.026 0 .053.008.079.011h.026v-.026-.02c.035.006.071.011.1.014v-.009c0-.011 0-.024.005-.034h.03c.024 0 .048.007.072.008a.133.133 0 0 0 0-.027c0-.006 0-.011 0-.016l.078-.015.065-.013a.2.2 0 0 0 .005-.042c.059-.006.117-.014.178-.023.014-.029.029-.056.044-.083a.412.412 0 0 1 .055.007h.015v-.023-.023l.042-.012h.008l.168-.047.048-.056.158-.186a.1.1 0 0 1 .057-.015.316.316 0 0 1 .06.008.392.392 0 0 0 .067.008.145.145 0 0 0 .064-.014v-.021c0-.007 0-.015 0-.024.042-.026.081-.05.115-.074v-.022c0-.023.006-.045.009-.067h.008a.122.122 0 0 0 .027 0l.014-.027c.01-.019.02-.038.03-.058a.1.1 0 0 1 .053-.019.054.054 0 0 1 .027.008.04.04 0 0 0 .017.007c.011 0 .023-.016.057-.108l.143-.041.076-.021c.019-.051.032-.09.043-.122a.36.36 0 0 1 .113-.191l.01-.027c.013-.034.026-.068.04-.1l.053-.035.06-.04v-.011a.3.3 0 0 1 0-.032.43.43 0 0 0 .046.006h.022c0-.013 0-.027.006-.04h.027l.04.007.082-.081a.4.4 0 0 0 .045.006h.023c.036-.052.071-.11.1-.165l.026-.042a.249.249 0 0 1 .089-.06c.041-.018.073-.032.112-.136l.083-.024.133-.039c.018-.041.034-.08.052-.126h.031l.072.01v-.013c0-.01 0-.02 0-.032a.157.157 0 0 1 .055-.015.026.026 0 0 1 .019.006c0 .005.006.007.008.007s.019-.014.066-.068h.014.02c.008-.052.013-.091.016-.129.04-.027.078-.052.115-.076a.189.189 0 0 1 0-.031v-.014h.035.035l.042-.062.042-.062h.031.038a.468.468 0 0 1 .434-.39c0-.023.006-.045.009-.068s.005-.045.009-.067a.316.316 0 0 0 .14-.05.369.369 0 0 1 .12-.049l.009-.076c0-.033.008-.067.011-.1l.04-.014.144-.051c.017-.044.034-.086.051-.128l.056-.016.053-.015.047-.119.054-.136.049-.031.066-.043c.016-.043.032-.083.049-.125a.343.343 0 0 1 .181-.1c.083-.023.148-.041.22-.292h.034.034a.671.671 0 0 1 .056-.091.409.409 0 0 0 .084-.2.111.111 0 0 0 -.034-.006c0-.005 0-.011 0-.016a.178.178 0 0 0 0-.028l.065.009.108.015.029-.043.055-.081.133-.094.013-.009.124-.087.006-.048c0-.028.007-.056.01-.082l.06.007h.01a.54.54 0 0 1 .108-.184.574.574 0 0 0 .111-.189h.038.031l.008-.026c.019-.064.037-.124.053-.187h.018.018l.009-.072.018-.147.021-.007.046-.013.04-.011a.253.253 0 0 0 .059-.117.4.4 0 0 1 .038-.094l.026-.013.048-.023.008-.064v-.007c0-.035.009-.071.013-.106.022 0 .045.007.068.01l.078-.144.1-.19.094.011h.011v.006c0 .012 0 .024-.006.037a.142.142 0 0 0 .032.005v-.025-.019c.055.009.111.015.165.021h.007c.092.168.178.328.257.478.021.017.041.033.059.049l-.018.15c-.011.1-.023.193-.035.29a.133.133 0 0 0 -.037 0c-.019.071-.04.143-.06.214s-.041.143-.06.214h-.015-.021c0 .049-.01.1-.015.132l-.034-.005c-.025.1-.047.18-.067.259h-.035v.042s0 .03-.005.045a.2.2 0 0 1 -.036-.005c0 .046-.01.089-.016.132h-.017-.017q-.139.7-.277 1.392h-.026-.042l-.012.1c-.012.1-.025.2-.036.3-.018.007-.035.015-.053.024l-.022.01c0 .015 0 .029-.006.043s0 .03-.006.046h-.016-.017l-.008.2-.008.2a.144.144 0 0 0 -.035-.005v.036c0 .032-.007.063-.012.1a.1.1 0 0 0 -.026 0h-.007a3.125 3.125 0 0 0 -.076.838c0 .138 0 .257-.011.332l-.057.36v.01.008q-.046.291-.092.582h-.015-.02l-.01.077c-.006.049-.012.095-.019.14h.025.012l-.029.33v.011c-.017.195-.034.389-.051.585h.022l.047.008q-.014.113-.028.226v.005q-.016.125-.031.25a.9.9 0 0 0 -.131.088.454.454 0 0 1 -.3.125h-.017v-.014c0-.011 0-.021 0-.032l-.1-.011-.076-.009a.271.271 0 0 1 .006-.045l-.042-.006h-.028c0-.006 0-.012 0-.018s0-.016 0-.025l-.131-.058c0-.012 0-.023 0-.033v-.013h-.025-.045c-.007-.032-.015-.064-.023-.094h-.042-.028v-.014c0-.011 0-.021 0-.031h-.038-.032c0-.021-.009-.04-.014-.06l-.008-.034-.08-.037-.053-.025v-.007c0-.012 0-.023 0-.036l-.072-.009-.065-.008a.17.17 0 0 0 0-.034v-.009h-.028l-.074-.011-.007-.026c-.006-.022-.011-.043-.018-.064l-.087-.012-.085-.012c0-.009 0-.02 0-.031v-.012a.346.346 0 0 0 -.1-.033.269.269 0 0 1 -.1-.036c-.005-.026-.011-.047-.016-.067a.628.628 0 0 1 -.025-.16.5.5 0 0 1 -.245-.3h-.021-.014c0-.026.006-.053.009-.08s.008-.065.011-.1a.2.2 0 0 0 -.034 0l.025-.145v-.014q.047-.271.093-.54a.2.2 0 0 1 .035 0l.006-.046c.007-.058.014-.115.022-.173h.03.005a.231.231 0 0 0 .03-.072c0-.013 0-.013.045-.045l.009-.006c0-.01 0-.019 0-.027v-.016c.105.01.208.024.276.033.03.056.046.062.068.069a.146.146 0 0 1 .059.036v.028.016l.042.005h.027c.025.06.052.124.082.187l.062.008h.007a.923.923 0 0 1 .129.373l.1.013.109.014a1.138 1.138 0 0 0 .134-.527v-.036a.125.125 0 0 1 .025 0h.011c0-.045 0-.089 0-.133v-.006c0-.043 0-.086 0-.13h-.012-.023v-.025c.006-.05.012-.1.018-.151a.116.116 0 0 1 -.018-.133c.012-.006.023-.05.035-.1s.023-.09.035-.1q.042-.247.081-.492.028-.169.055-.337c.008-.142.014-.285.02-.427v-.017h.012.023a2.586 2.586 0 0 0 .081-.657.855.855 0 0 0 -.3.183l-.007.056c-.005.04-.01.08-.015.12h-.013-.022c0 .023-.005.048-.008.073v.015c-.039.01-.073.019-.108.031l-.078.1-.049.062h-.021l-.049-.005a.573.573 0 0 1 -.262.359 1.046 1.046 0 0 0 -.148.123v.025.021a.389.389 0 0 0 -.074.034c-.005.042-.011.086-.016.131-.025.005-.049.012-.074.02l-.037.011-.012.023-.032.06a.587.587 0 0 1 -.258.1c0 .045-.011.091-.017.133a.81.81 0 0 0 -.088-.012h-.015v.01c-.034.143-.05.208-.169.236-.013.016-.023.028-.03.039-.024.034-.032.045-.1.054a1.219 1.219 0 0 1 -.054.173 1.219 1.219 0 0 0 -.053.169l-.07-.005c-.039 0-.078 0-.1-.008a.176.176 0 0 0 -.033.084.166.166 0 0 1 -.031.081l-.069-.009-.068.082c-.033.04-.066.079-.1.12l-.068-.009a.133.133 0 0 0 -.036.1.207.207 0 0 1 -.028.11c-.021.033-.106.059-.189.084a.621.621 0 0 0 -.141.053.2.2 0 0 0 -.006.036v.008l-.039.029-.116.085c0 .021 0 .041-.007.062v.025a1.694 1.694 0 0 1 -.229.149h-.036-.034l-.019.036-.025.047h-.027l-.043-.005v.01c0 .011 0 .023-.005.035l-.085.023-.025.006c0 .036-.008.073-.012.109v.024a.927.927 0 0 0 -.492.293l-.083.122-.043.011h-.009l-.347.072-.164.2-.04-.005h-.031c-.008.017-.017.033-.026.048l-.019.035h-.033l-.071-.01v.014.031a.62.62 0 0 1 -.07-.009.33.33 0 0 1 0 .039v.006l-.042-.006h-.028l-.035.064-.011.021-.042-.006h-.027l-.04.052c-.028.036-.056.073-.084.11h-.207-.111v.025.02l-.021.006a.858.858 0 0 1 -.087.024.9.9 0 0 1 -.046.083l-.205.005h-.11v.017a.264.264 0 0 0 0 .027l-.1-.015v.032.012l-.1.018-.044.007v.02a.224.224 0 0 1 0 .027.393.393 0 0 1 -.1-.031.373.373 0 0 0 -.106-.031c0 .007-.024.012-.049.012a.189.189 0 0 1 -.2-.157.173.173 0 0 1 -.076.017.457.457 0 0 1 -.164-.045.7.7 0 0 0 -.189-.056.566.566 0 0 0 -.21-.294l-.1-.014-.013-.052-.01-.038-.038-.031-.028-.023a.835.835 0 0 0 .012-.088c-.031-.06-.061-.121-.091-.183l-.05-.1c-.079-.008-.16-.019-.239-.029-.04.045-.078.09-.116.135l-.09.106c-.029 0-.06-.006-.089-.01l-.05-.007-.367.4-.176.021c-.064.075-.13.148-.195.22l-.091.1c-.048.01-.094.018-.141.026l-.113.136-.008.009-.048.059a.3.3 0 0 1 -.04-.005h-.029v.035.01a.436.436 0 0 0 -.068-.006.108.108 0 0 0 0 .021v.02c-.022 0-.046-.005-.069-.009l-.08.081a.592.592 0 0 0 -.069-.008l-.131.149-.114.13c-.043 0-.086-.01-.13-.016h-.009l-.106.127v.005l-.094.112-.111.03-.216.06v.017.028h-.033-.034l-.015.028c-.01.019-.021.038-.029.058h-.019l-.087-.012c-.026.035-.052.069-.08.1l-.005.007-.04.051-.239-.03c-.02.033-.034.058-.047.083l-.766-.049c-.007-.03-.015-.06-.025-.093a.332.332 0 0 0 -.259-.167c0-.027.008-.055.011-.087a.785.785 0 0 1 -.137-.211c-.061-.12-.124-.243-.258-.285-.033.048-.042.056-.052.056h-.006a.1.1 0 0 0 -.056.021c0 .012 0 .024-.005.035v.008h-.031-.038c-.08.094-.16.186-.245.281-.025 0-.046 0-.07-.008l-.086.1-.2.224-.068-.007-.02.036-.025.046-.094.027c-.042.012-.083.024-.125.035v.008c-.014.026-.027.054-.042.076h-.018c-.016 0-.034 0-.05-.006v.011.01a.184.184 0 0 0 0 .023l-.042-.006c-.033 0-.064-.009-.1-.012l-.018.029c-.037.059-.074.118-.113.175-.1.027-.194.051-.289.074l-.072.018-.044.062-.041.058h-.01l-.059-.006-.014.026-.03.057a2.178 2.178 0 0 1 -.559.069.537.537 0 0 1 -.219-.03.324.324 0 0 0 .022-.08l-.112-.066-.18-.105c-.049-.1-.094-.19-.14-.284h-.034-.035l-.08-.162v-.007l-.057-.116-.036-.005v-.038-.006c.005-.043.011-.087.017-.131l-.051-.063-.07-.087c0-.1-.007-.195-.011-.292l-.005-.155-.053-.058-.04-.044c.012-.1.025-.2.037-.294l.019-.145h-.018-.018c.034-.182.069-.366.105-.565a.819.819 0 0 0 -.1-.013v.04.047h-.02-.015l-.1.113-.109.129a.53.53 0 0 1 -.064-.007h-.006c-.047.155-.068.166-.123.194a.568.568 0 0 0 -.083.05l-.05.071-.036.051h-.035-.035v.022s0 .015 0 .023l-.05.033-.064.042c-.015.05-.03.1-.045.153l-.018.062h-.014-.02c-.044.05-.087.1-.13.154l-.075.089-.042-.007h-.025c-.062.078-.122.157-.18.233l-.072.094-.145.024v.023s0 .015 0 .021l-.033.016c-.014.007-.027.014-.04.019s0 .03-.006.045 0 .028-.006.043a.4.4 0 0 1 -.075.035l-.071.095-.053.071-.069-.011-.015.028-.031.056h-.035-.034v.023.021l-.1.07-.059.044-.011.085-.025.02c-.044.032-.088.064-.131.1 0 .03-.006.059-.01.088l-.069-.009c-.037.052-.05.062-.058.062a.016.016 0 0 1 -.008 0 .023.023 0 0 0 -.011 0 .07.07 0 0 0 -.038.019l-.046.084h-.005l-.03-.005c0 .029-.006.058-.01.087l-.075.038v.006a.274.274 0 0 1 -.005.037c-.06.007-.12.014-.176.022a1.329 1.329 0 0 1 -.18.17 1.253 1.253 0 0 0 -.185.177c-.017 0-.062 0-.094 0h-.036a.214.214 0 0 1 -.092.019.671.671 0 0 1 -.1-.01.612.612 0 0 0 -.1-.011.139.139 0 0 0 -.145.115c-.035 0-.067-.005-.1-.005a.664.664 0 0 0 -.121.011h-.016a.37.37 0 0 1 -.068.008.354.354 0 0 1 -.132-.032.265.265 0 0 0 -.1-.153.265.265 0 0 1 -.094-.125c0-.021 0-.042.007-.062v-.026c-.059-.082-.121-.165-.18-.245a1.913 1.913 0 0 1 .035-.586c.009-.06.017-.116.023-.164a1.135 1.135 0 0 0 .431-.661h.022a.436.436 0 0 1 .048.008l.06-.174.042-.12v-.013l.058-.165h.024l.045.005a.152.152 0 0 1 .1-.077.1.1 0 0 0 .058-.037.289.289 0 0 0 .058-.149c.009-.058.013-.09.133-.09h.049l.024-.093c.014-.055.028-.11.042-.166l.073-.013.072-.013.009-.078c.007-.061.015-.122.023-.185l.1-.019.039-.007c.005-.029.008-.058.01-.086a1 1 0 0 0 -.136-.021c-.071.083-.139.163-.206.243l-.04-.006c-.032 0-.065-.01-.1-.012-.072.1-.141.189-.211.285l-.062-.008-.076-.009-.1.161c-.054.085-.106.169-.16.252a.412.412 0 0 1 -.134.085.273.273 0 0 0 -.186.23.36.36 0 0 1 -.078-.055l-.01.015c-.025.037-.05.074-.075.108a.357.357 0 0 1 -.043 0h-.025c-.042.063-.085.131-.131.206-.023 0-.044-.007-.069-.01-.024.033-.049.069-.072.1l-.013.019h-.034-.036c-.009.016-.018.033-.027.05l-.018.034-.039.01-.07.019v.019.024h-.009l-.062-.008-.02.038-.024.046h-.019a.447.447 0 0 0 -.053-.006c-.014.019-.028.04-.041.06s-.029.043-.043.063l-.07-.01-.042.062-.042.061h-.013-.021v.019c0 .022-.006.045-.009.069l-.018.014c-.045.034-.09.068-.136.1v.029.015a.476.476 0 0 1 -.07-.007l-.024.035-.06.087-.058-.008h-.01l-.081.08c0 .029-.007.058-.009.087a.163.163 0 0 1 -.129.045.185.185 0 0 0 -.089.018l-.026.045-.022.037-.032.03a.3.3 0 0 1 -.25.11h-.026l-.01.081-.006.053h-.029l-.041-.007a.533.533 0 0 1 -.091.109.417.417 0 0 0 -.119.177h-.03-.039l-.014.034c-.012.031-.024.061-.037.092h-.014a.532.532 0 0 0 -.206.046.717.717 0 0 1 -.143.043c-.007.042-.012.083-.017.132a.257.257 0 0 0 -.148.069v.031.012l-.108.031c-.017.029-.032.055-.048.085l-.08-.011h-.023v.039-.021a.332.332 0 0 1 -.098.009zm6.023-3.692a.172.172 0 0 0 -.045.007c0 .047-.009.089-.016.133-.128.117-.266.241-.433.389l-.009.07c-.008.067-.016.13-.023.2l-.094.054-.1.056c0 .038-.009.079-.016.13l-.086.032h-.013l-.084.031c-.009.071-.018.145-.026.217l-.029.014-.046.023a.691.691 0 0 0 -.153.381h.012l.092.013.027-.087.027-.085.071.007c.042-.136.064-.153.194-.153v-.038c0-.017 0-.033.005-.051.038.006.072.011.1.014v-.02-.026a.421.421 0 0 0 .066-.069.176.176 0 0 1 .163-.079l.041-.1c.021-.052.04-.1.06-.152.032.006.065.01.1.014l.076.01c.012-.025.022-.044.032-.063a.664.664 0 0 0 .063-.149l.064.008.075.009.126-.212.03-.049.066-.111h.029.038c0-.022.006-.044.008-.067s0-.044.008-.065h.018c.017 0 .036.005.053.006.03-.047.041-.056.053-.056h.014a.08.08 0 0 0 .046-.019l.022-.041.023-.043h.021.013a.355.355 0 0 0 .036-.09c.016-.052.033-.106.06-.122.047.006.094.013.139.017.026-.014.043-.067.059-.118a.316.316 0 0 1 .038-.092.61.61 0 0 1 .257-.1.912.912 0 0 1 .1-.218 1 1 0 0 0 .1-.2h.029c.056-.009.056-.009.076-.071l.014-.042.069.009.069.009c.012-.046.026-.092.04-.139l.022-.076.178-.021c0-.014 0-.027 0-.041h.012a.119.119 0 0 1 .023 0c0-.032.007-.063.011-.094s.007-.056.01-.083l.161-.132.073-.06.152-.382.02-.006.088-.027-.008-.053c0-.027-.007-.054-.01-.082l.076-.014.069-.013.033-.085c.022-.057.044-.113.066-.171a.486.486 0 0 0 .069.011l.01-.033c.022-.069.022-.069.075-.081l.034-.007a.192.192 0 0 1 .147-.069c.013-.039.024-.079.035-.117l.028-.1.037-.019.037-.019c.007-.058.014-.115.021-.175l.043-.019.033-.015.112-.283.09-.227h-.016-.019a.239.239 0 0 1 -.175.132.339.339 0 0 0 -.128.053l-.13.205a.528.528 0 0 1 -.064-.008.309.309 0 0 0 -.027.041l-.023.041h-.034v.037c0 .031-.008.062-.011.091l-.028.008-.081.022v.031.011h-.026-.042c-.021.029-.042.059-.062.089l-.024.035h-.012-.022c0 .012 0 .024-.005.037s0 .035-.008.052c-.025.011-.051.023-.074.034 0 .029-.006.059-.011.087h-.012-.022c0 .016 0 .031-.005.047s0 .027 0 .039c-.029.022-.058.04-.087.058l-.029.019v.023.021h-.034-.034l-.015.027c-.011.02-.021.038-.032.056h-.032-.037c-.007.016-.016.032-.025.048l-.019.034a.44.44 0 0 1 -.086.045c-.057.023-.081.033-.119.2h-.009l-.061-.008-.072.11c-.049.074-.1.147-.143.22h-.017c-.029 0-.059-.008-.089-.01v.014.029l-.1.081c-.046.038-.091.076-.137.112v.036s0 .034-.006.051h-.039-.031l-.038.132-.024.081h-.012l-.063-.006c-.083.107-.167.217-.248.324a.308.308 0 0 1 -.04 0h-.031v.032.012c-.029.024-.056.051-.083.077a.485.485 0 0 1 -.227.152l-.008.062c0 .037-.009.075-.014.112l-.053.042-.018.015c-.041.032-.081.064-.121.1 0 .02-.006.038-.008.057v.032h-.009-.024a.151.151 0 0 0 -.034.08c0 .018 0 .018-.078.038h-.009l-.019.019c-.006.006-.006.006-.01.006zm8.132-2.842a.344.344 0 0 0 -.038.116c-.008.048-.01.063-.129.084l-.009.074c-.008.066-.015.128-.023.19a.215.215 0 0 0 -.079.08c-.018.03-.033.054-.117.073a.926.926 0 0 1 -.205.476c-.026.035-.052.072-.077.112a.083.083 0 0 0 .027.006h.009a.4.4 0 0 1 .264-.147l.041-.1c.02-.052.039-.1.06-.151h.007.026c0-.014 0-.029.006-.044s0-.029.006-.043h.009.025c0-.044.011-.088.017-.132l.12-.079.107-.071q.012-.088.022-.175l.028-.013.048-.021v-.01c0-.026.006-.052.009-.077h.024.011v-.038c0-.032.007-.064.013-.093h.017.016a.2.2 0 0 1 .1-.066c.04-.012.064-.019.1-.173h.023.047a.328.328 0 0 1 .279-.274c.012-.045.023-.09.035-.135v-.007l.03-.117h.014.021a.288.288 0 0 1 .084-.063.246.246 0 0 0 .071-.053v-.041c0-.016 0-.031.005-.046l.075-.035v-.022c0-.022.005-.044.009-.067a.628.628 0 0 1 .263-.145 1.105 1.105 0 0 1 .2-.465.3.3 0 0 0 .038.006h.032c.014-.028.031-.056.046-.082h.027.007c0-.026-.007-.053-.011-.079l-.007-.057.075-.036c0-.026.006-.051.009-.076s0-.037.006-.054h.035l.029-.038a.151.151 0 0 1 .125-.077l.034-.129.034-.129-.052-.006-.087-.01c-.061.122-.1.174-.232.193-.008.047-.014.09-.017.131a.353.353 0 0 0 -.125.049.364.364 0 0 1 -.134.052l-.042.115-.006.018c-.021.057-.041.111-.06.165h-.034-.034c-.024.067-.042.12-.058.171h-.025c-.039.007-.079.015-.118.024a.816.816 0 0 1 -.048.125.741.741 0 0 0 -.06.173c-.02 0-.042-.008-.068-.011l-.074.125c-.05.085-.1.167-.147.25h-.02l-.05-.008a.383.383 0 0 1 -.116.222.825.825 0 0 0 -.059.068h.012-.027c-.022.073-.042.143-.063.215h-.032-.037c-.035.13-.053.176-.165.2l-.026.082-.029.089h-.012-.023zm4.316.16-.048.107-.048.107h.023.011c.008.013.012.021.014.026s0 .007.008.008a.175.175 0 0 1 .04.017l.092-.126.117-.16h.024c.04.005.077.01.116.013a.231.231 0 0 1 0-.033v-.009a.364.364 0 0 0 .1-.132.222.222 0 0 1 .179-.144v-.024c.007-.051.014-.1.02-.151.023.02.042.036.064.052l.07-.1.1-.145h.006c.032-.01.066-.02.1-.028.014-.049.03-.1.047-.146l.009-.028a.05.05 0 0 1 .042-.022h.025a.165.165 0 0 0 .034 0 .076.076 0 0 0 .04-.011c.016-.025.032-.053.048-.084h.022.011c.023-.054.045-.109.067-.164l.035-.088.154-.109h.006l.11-.077a.2.2 0 0 0 .036-.114c0-.041 0-.059.127-.087 0-.02.005-.039.008-.059s.006-.048.009-.073a.5.5 0 0 0 .1-.085.322.322 0 0 1 .164-.1l.03-.085.077-.214.015-.009c.033-.021.066-.042.1-.064a.185.185 0 0 0 .024-.088.107.107 0 0 1 .033-.084l.039.006h.028l.025-.046.021-.038a.151.151 0 0 1 .027 0h.007l.034-.129.034-.13.075-.034.012-.013a.745.745 0 0 0 .2-.317l-.069-.008-.069-.008v.019.024c-.13.023-.31.23-.455.4a2.543 2.543 0 0 1 -.179.193.252.252 0 0 1 -.095.056c-.046.017-.074.027-.11.187-.1.025-.1.028-.1.055a.18.18 0 0 1 -.029.108.218.218 0 0 0 -.035 0v.035s0 .035-.005.052l-.037.01c-.025.007-.048.013-.073.021l-.022.04-.023.042-.043-.005h-.029l-.014.05c-.015.056-.03.111-.047.165h-.014-.019c-.019.033-.034.059-.046.084l-.047-.008h-.022c-.015.023-.03.045-.046.067l-.039.056-.069-.007a.315.315 0 0 1 -.006.042l-.03.027c-.033.029-.033.029-.057.131v.009c-.1.021-.123.07-.155.144a.81.81 0 0 1 -.049.1h-.018-.017c0 .02 0 .041-.007.062v.026h-.017-.018c0 .015 0 .029-.005.043s0 .03-.006.046l-.028.008c-.027.007-.054.015-.08.024l.028.047-.009.021a.525.525 0 0 0 -.045.152l-.036-.006-.034-.005-.088.145-.005.009v.008l-.078.128-.061.017-.048.014c-.011.039-.024.076-.036.113l-.019.057-.063.03-.088.041c-.006.059-.013.119-.021.175a.122.122 0 0 1 -.035-.005zm-14.507-3.442a1.19 1.19 0 0 1 -.491-.284 1.105 1.105 0 0 1 -.08-.211.679.679 0 0 0 -.024-.071h-.031c-.036 0-.072-.009-.108-.011.006-.056.013-.11.019-.164v-.01l.006-.047h-.035-.033l.006-.058a1.155 1.155 0 0 1 .088-.422l.069-.032c0-.03.008-.059.011-.088s.007-.059.011-.088l.058-.043.019-.014.076-.057c.023-.085.045-.171.067-.258h.016.018a.187.187 0 0 0 .005-.044l.071-.012.076-.013.127-.142.2-.22.043.025.056.032a.18.18 0 0 0 0 .028v.015h.008a.494.494 0 0 0 .059-.004v.022s0 .015 0 .022h.032l.036.005c.006.02.011.041.017.062l.007.029h.023l.047.005v.014.03l.043.005h.024c.042.061.084.12.127.179l.082.115v.2.067a.392.392 0 0 0 .052.043l.013.01a.565.565 0 0 1 .024.36h-.033c-.005.031-.009.063-.013.095v.037l-.106.05-.043.021c-.019.056-.039.114-.056.17l-.034.017-.043.02c-.04.1-.071.181-.1.254l-.03.015-.043.021v.035c0 .017 0 .034-.006.05h-.016-.019l-.015.02c-.038.05-.074.1-.111.145a.1.1 0 0 1 -.062.021c-.023 0-.045 0-.086.048zm12.307-1.354-.227-.058-.113-.029c0-.007 0-.014 0-.021s0-.017 0-.023l-.145-.018-.06-.008c-.008-.053-.014-.1-.018-.137a.856.856 0 0 1 -.01-.5l.005-.035.1-.075.052-.039c0-.025.006-.05.009-.074s.009-.069.013-.1h.035c0-.011 0-.024 0-.036s0-.035.007-.053a.1.1 0 0 0 .033.006c.042-.055.083-.108.124-.164a.467.467 0 0 0 .071.009.1.1 0 0 0 .031-.082.169.169 0 0 1 .024-.088l.041-.011.069-.019a.734.734 0 0 0 .14-.294.593.593 0 0 0 .07.008.44.44 0 0 1 .118-.121.4.4 0 0 0 .082-.077v-.013c0-.025.006-.05.01-.074l.111-.073c.006-.029.009-.056.012-.082v-.007c.03-.021.062-.042.094-.063l.021-.014c0-.014 0-.028.005-.042s0-.03.006-.046l.034-.016.04-.018c0-.029.008-.057.011-.088.025-.011.051-.022.076-.034 0-.012 0-.024 0-.036s0-.036.006-.053l.021-.01.054-.024a.972.972 0 0 0 .14-.293l.087.01.191.024c0 .035.009.072.014.11v.026h.017.018c0 .014 0 .029-.006.043s0 .03-.006.045h.014.021l.011.081c.008.064.017.128.025.191h.009a.145.145 0 0 1 .027.005c0 .032-.009.058-.011.087l.039.031.024.019a1.605 1.605 0 0 1 0 .535 1.269 1.269 0 0 0 -.31.308c-.131.161-.266.328-.438.356l-.013.1c-.007.055-.014.111-.022.167l-.064.037-.124.071c-.014.028-.03.057-.045.082-.022 0-.044 0-.066-.006a.2.2 0 0 0 -.007.039.226.226 0 0 1 -.04.03c-.025.016-.051.032-.074.049 0 .018-.006.036-.008.053s0 .024 0 .035h-.012a.094.094 0 0 1 -.022 0c-.011.031-.021.063-.031.095s-.016.051-.025.076h-.036l-.007.017c-.015.036-.03.074-.043.113a.531.531 0 0 0 -.068.029h-.006c-.016.044-.033.086-.05.128h-.032-.037v.023.018z" fill="#ea148c"/></g></svg>