<svg height="54.033" viewBox="0 0 47.002 54.033" width="47.002" xmlns="http://www.w3.org/2000/svg"><path d="m724.548 1878.771a3.726 3.726 0 0 1 -3.736 3.738h-1.155v12.506h-1.834v-14.273h2.989a1.972 1.972 0 0 0 1.97-1.971v-16.38a1.972 1.972 0 0 0 -1.97-1.971h-12.5a1.972 1.972 0 0 0 -1.97 1.971v16.38a1.972 1.972 0 0 0 1.97 1.971h2.788v14.273h-1.834v-12.438h-1.019a3.726 3.726 0 0 1 -3.736-3.738v-16.448a3.726 3.726 0 0 1 3.736-3.739h12.5a3.726 3.726 0 0 1 3.736 3.739v16.38zm-17.248-30.585a7.2 7.2 0 1 1 7.2 7.2 7.206 7.206 0 0 1 -7.2-7.2zm1.834 0a5.434 5.434 0 1 0 5.434-5.437 5.452 5.452 0 0 0 -5.438 5.437zm-6.928 46.829h1.834v-10.4h.815v-1.835h-2.655zm-9.441-13.729v-13.866a1.507 1.507 0 0 1 1.494-1.495h8.219v-1.836h-8.151a3.335 3.335 0 0 0 -3.328 3.331v13.865a3.335 3.335 0 0 0 3.328 3.331h.673v10.4h1.834v-12.234h-2.513a1.523 1.523 0 0 1 -1.56-1.496zm.543-25.9a6.249 6.249 0 1 1 6.249 6.253 6.234 6.234 0 0 1 -6.257-6.249zm1.834 0a4.415 4.415 0 1 0 4.415-4.417 4.408 4.408 0 0 0 -4.419 4.421zm29 29.226h.815v10.4h1.834v-12.234h-2.649zm10.528-20.526h-8.151v1.836h8.219a1.508 1.508 0 0 1 1.494 1.495v13.865a1.508 1.508 0 0 1 -1.494 1.5h-2.581v12.234h1.834v-10.4h.679a3.335 3.335 0 0 0 3.328-3.331v-13.865a3.335 3.335 0 0 0 -3.329-3.33zm-11.479-8.7a6.249 6.249 0 1 1 6.249 6.253 6.234 6.234 0 0 1 -6.25-6.249zm1.766 0a4.415 4.415 0 1 0 4.415-4.417 4.408 4.408 0 0 0 -4.416 4.421z" fill="#231f20" transform="translate(-690.995 -1840.982)"/></svg>