<svg xmlns="http://www.w3.org/2000/svg" width="52.997" height="30.979" viewBox="0 0 52.997 30.979"><path d="M695,919.163a11.013,11.013,0,0,0-6.682-10.146,7.251,7.251,0,0,0,1.478-10.081,7.1,7.1,0,0,0-9.987-1.491,7.239,7.239,0,0,0,0,11.573,10.9,10.9,0,0,0-5.768,5.938l-1.314-.692a7.251,7.251,0,0,0,1.478-10.081,7.1,7.1,0,0,0-9.987-1.492,7.251,7.251,0,0,0-1.478,10.081,7.159,7.159,0,0,0,1.478,1.492l-1.314.692a10.9,10.9,0,0,0-5.768-5.88,7.251,7.251,0,0,0,1.478-10.081,7.1,7.1,0,0,0-9.987-1.492,7.239,7.239,0,0,0,0,11.573A11.013,11.013,0,0,0,642,919.163v2.594h2.284v-2.594a8.613,8.613,0,0,1,16.79-2.767,11,11,0,0,0-3.427,8.013V927h2.284v-2.594a8.624,8.624,0,1,1,17.19-1.416,8.783,8.783,0,0,1,0,1.416V927h2.284v-2.594a11,11,0,0,0-3.426-8.013,8.6,8.6,0,0,1,11.039-5.233,8.7,8.7,0,0,1,5.694,8v2.594H695ZM648.053,903.31a4.855,4.855,0,1,1,4.854,4.9,4.878,4.878,0,0,1-4.854-4.9Zm15.591,5.246a4.855,4.855,0,1,1,4.911,4.842H668.5A4.876,4.876,0,0,1,663.644,908.556Zm15.591-5.246a4.854,4.854,0,1,1,4.854,4.9h0a4.877,4.877,0,0,1-4.854-4.9Z" transform="translate(-642 -896.024)" fill="#231f20"/></svg>