<svg height="26" viewBox="0 0 26 26" width="26" xmlns="http://www.w3.org/2000/svg"><g transform="translate(-201 -15)"><circle cx="214" cy="28" fill="#fff" r="13"/><path d="m208.491 35a.494.494 0 0 1 -.486-.5v-3.486a2.713 2.713 0 0 1 2.639-2.776.46.46 0 0 1 .186.038 6.514 6.514 0 0 0 5.352 0 .459.459 0 0 1 .185-.038 2.713 2.713 0 0 1 2.639 2.776v3.486a.494.494 0 0 1 -.486.5zm7.915-2.408v1.408h1.629v-2.986a1.731 1.731 0 0 0 -1.578-1.772 7.491 7.491 0 0 1 -5.9 0 1.732 1.732 0 0 0 -1.578 1.772v2.986h1.629v-1.4a.486.486 0 1 1 .972 0v1.4h3.856v-1.4a.486.486 0 1 1 .971 0zm-6.479-8.013a3.579 3.579 0 1 1 3.579 3.577 3.582 3.582 0 0 1 -3.579-3.577zm.972 0a2.608 2.608 0 1 0 2.607-2.579 2.594 2.594 0 0 0 -2.606 2.579z" fill="#231f20"/></g></svg>