<svg height="50" viewBox="0 0 49.96 50" width="49.96" xmlns="http://www.w3.org/2000/svg"><g transform="translate(-489.91 -6391)"><ellipse cx="514.89" cy="6416" fill="#231f20" rx="24.98" ry="25"/><path d="m521.78 6407.8a7.9 7.9 0 0 0 -5.7-2.306 8.717 8.717 0 0 0 -6.609 2.7 8.212 8.212 0 0 0 -2.228 5.527c0 2.505.99 4.428 2.647 5.143a.834.834 0 0 0 .333.073.752.752 0 0 0 .722-.631c.056-.223.186-.773.242-1.012a.987.987 0 0 0 -.24-1.026 3.4 3.4 0 0 1 -.7-2.234 5.476 5.476 0 0 1 5.508-5.663c2.839 0 4.6 1.708 4.6 4.459a9.709 9.709 0 0 1 -.994 4.525 2.954 2.954 0 0 1 -2.432 1.8 1.577 1.577 0 0 1 -1.282-.621 1.633 1.633 0 0 1 -.258-1.356c.126-.567.3-1.159.466-1.731a11.253 11.253 0 0 0 .592-2.818 2 2 0 0 0 -1.945-2.25c-1.478 0-2.637 1.589-2.637 3.619a5.661 5.661 0 0 0 .363 2.026c-.186.836-1.293 5.8-1.5 6.74-.121.547-.853 4.866.358 5.21 1.36.387 2.576-3.82 2.7-4.3.1-.386.451-1.848.666-2.747a3.988 3.988 0 0 0 2.742 1.122 6.007 6.007 0 0 0 4.91-2.6 10.876 10.876 0 0 0 1.846-6.386 7.577 7.577 0 0 0 -2.17-5.263z" fill="#fff"/></g></svg>