<svg xmlns="http://www.w3.org/2000/svg" width="23.016" height="34.989" viewBox="0 0 23.016 34.989"><path d="M74.39,346.99v-2.5h6.8v2.5Zm2.974-5.789a1.218,1.218,0,0,1-.784-.287c-11.376-9.529-10.6-17.311-10.56-17.639a11.485,11.485,0,0,1,22.968.14c.032.187.81,7.97-10.566,17.5a1.236,1.236,0,0,1-.787.287Zm-8.917-17.786c-.013.19-.543,6.75,9.05,15.1,9.593-8.348,9.068-14.9,9.059-14.971a9.055,9.055,0,1,0-18.109-.127Zm4.7-1.013a4.5,4.5,0,1,1,5.336,5.268,4.708,4.708,0,0,1-.92.092A4.49,4.49,0,0,1,73.142,322.4Zm2.352.887a2.063,2.063,0,1,0,2.064-2.048A2.061,2.061,0,0,0,75.494,323.289Z" transform="translate(-65.995 -312)" fill="#231f20"/></svg>