<svg xmlns="http://www.w3.org/2000/svg" width="63" height="50.016" viewBox="0 0 63 50.016"><path d="M814.544,1973.345a28.822,28.822,0,0,0-6.54,18.077,19.416,19.416,0,0,0,5.31,13.861q5.31,5.622,11.9,5.622a12.866,12.866,0,0,0,9.047-3.344,10.5,10.5,0,0,0,3.639-8,10.169,10.169,0,0,0-10.031-10.178,12.47,12.47,0,0,0-3.933.727,11.538,11.538,0,0,1-3.442.727,2.556,2.556,0,0,1-2.163-1.357q-.984-1.258-.983-4.653a16.932,16.932,0,0,1,3.737-10.565q3.736-4.846,12.391-9.305v-3.974Q821.083,1964.962,814.544,1973.345Zm33.056-.194a29.332,29.332,0,0,0-6.589,18.562,19.275,19.275,0,0,0,5.212,13.764q5.211,5.525,11.7,5.525a13.208,13.208,0,0,0,9.293-3.489,10.857,10.857,0,0,0,3.786-8.239,9.334,9.334,0,0,0-3-7.028,9.87,9.87,0,0,0-7.031-2.859,12.761,12.761,0,0,0-4.327.776,10.742,10.742,0,0,1-3.245.775,2.977,2.977,0,0,1-2.262-1.357,6.439,6.439,0,0,1-1.082-4.071,17.684,17.684,0,0,1,3.147-10.469q3.146-4.457,13.079-10.081v-3.683Q854.188,1964.767,847.6,1973.151Z" transform="translate(-808.004 -1960.986)" fill="#c3d8ef"/></svg>