<svg xmlns="http://www.w3.org/2000/svg" width="49.86" height="57.005" viewBox="0 0 49.86 57.005"><path d="M949.7,2004.862l-2.864-1.688a1.007,1.007,0,0,1-.391-.52.631.631,0,0,1,.065-.584l3.58-6.107c-.326-.13-.586-.325-.846-.455a32.186,32.186,0,0,1-3.645-2.469c-.586,1.17-2.083,3.639-4.556,4.288a7.112,7.112,0,0,1-1.172.13,6.47,6.47,0,0,1-4.1-1.754,11.782,11.782,0,0,1-4.426-7.6l-1.692.585a.394.394,0,0,1-.261.065.8.8,0,0,1-.78-.975l.651-2.989-1.041-2.858a.771.771,0,0,1,.13-.843.747.747,0,0,1,.781-.261l2.994.65,2.864-1.039a.779.779,0,0,1,.846.13.746.746,0,0,1,.26.78l-.651,2.988.977,2.729a.922.922,0,0,1,.13.39.861.861,0,0,1-.847.844h-.2l-2.538-.584a10.335,10.335,0,0,0,3.905,6.626c1.367,1.169,2.669,1.625,3.84,1.3,1.953-.519,3.319-2.858,3.71-3.833-.391-.454-.846-.844-1.172-1.234-2.083-2.339-1.952-3.833-1.5-4.613l.066-.066,19.526-25.725c-1.887-1.494-2.408-2.339-1.952-3.118a.778.778,0,0,1,.325-.324l16.532-8.641a.833.833,0,0,1,.781,0,.937.937,0,0,1,.456.715l.52,18.644a.928.928,0,0,1-.13.454,1.207,1.207,0,0,1-1.106.52,6.942,6.942,0,0,1-2.6-.715l-12.887,29.623a.064.064,0,0,0-.065.066,2.918,2.918,0,0,1-2.734,1.169,13.119,13.119,0,0,1-3.775-.715L950.8,2004.6a.9.9,0,0,1-.716.39A.931.931,0,0,1,949.7,2004.862Zm-1.237-2.793,1.432.844,3.319-5.587a16.681,16.681,0,0,1-1.561-.714Zm12.822-44.24a14.778,14.778,0,0,0,1.823,1.559.894.894,0,0,1,.13,1.17l-19.982,26.31c-.194.39.131,1.364,1.3,2.729a23.135,23.135,0,0,0,5.663,4.417c3.124,1.884,6.313,2.989,8.331,2.989a1.635,1.635,0,0,0,1.3-.39l13.213-30.338a.85.85,0,0,1,1.041-.454,11.766,11.766,0,0,0,2.278.844l-.521-16.566ZM930.951,1984.4c0,.13.065.325,0,.454l-.391,1.754,1.693-.519c.13,0,.325-.066.455,0l1.757.389-.586-1.689c0-.13-.065-.324,0-.455l.391-1.754-1.692.585c-.13,0-.325.065-.455,0l-1.758-.39Zm19.266,1.559a.811.811,0,0,1-.2-1.1L959,1971.86a.794.794,0,0,1,1.3.91l-8.982,12.992a.8.8,0,0,1-.651.326A1.206,1.206,0,0,1,950.217,1985.958Z" transform="translate(-928.15 -1947.987)" fill="#231f20"/></svg>