<svg xmlns="http://www.w3.org/2000/svg" width="36.001" height="32.999" viewBox="0 0 36.001 32.999"><path d="M288.954,345a1.191,1.191,0,0,1-1.266-1.027V327.9A4.521,4.521,0,0,1,285,323.765a1.121,1.121,0,0,1,.08-.417l4.278-10.7a1.059,1.059,0,0,1,1.017-.652H316.6a1.06,1.06,0,0,1,1.047.737L320.95,323.4a1.057,1.057,0,0,1,.05.322,4.539,4.539,0,0,1-3.088,4.316v15.933a1.033,1.033,0,0,1-1.1,1.027Zm1.03-2.329h25.634v-14.5a4.468,4.468,0,0,1-2.479-1.478,4.43,4.43,0,0,1-6.762,0,4.43,4.43,0,0,1-6.763,0,4.43,4.43,0,0,1-6.734.035,4.485,4.485,0,0,1-2.9,1.526ZM287.2,324.056a2.254,2.254,0,0,0,2.286,2.045,2.323,2.323,0,0,0,2.281-2q-.016-.189-.016-.383a1.1,1.1,0,0,1,1.1-1.112,1.09,1.09,0,0,1,.888.46,1.109,1.109,0,0,1,.246.7q0,.156-.011.31a2.283,2.283,0,0,0,4.543-.358,1.1,1.1,0,1,1,2.193,0,2.285,2.285,0,1,0,4.57,0,1.1,1.1,0,1,1,2.193,0,2.285,2.285,0,1,0,4.57.051c0-.016,0-.033,0-.05a1.122,1.122,0,0,1,.12-.507,1.094,1.094,0,0,1,2.074.477q0,.014,0,.029a2.3,2.3,0,0,0,2.284,2.318,2.222,2.222,0,0,0,2.281-2.069l-3.01-9.633H291.114Zm6.939,16.285a1.1,1.1,0,0,1-1.1-1.113V331.36a1.1,1.1,0,0,1,1.1-1.113h17.7a1.106,1.106,0,0,1,1.1,1.113v7.868a1.1,1.1,0,0,1-1.1,1.113Zm.816-2.329h15.686v-5.435H294.957Z" transform="translate(-284.999 -312)" fill="#231f20"/></svg>