<svg xmlns="http://www.w3.org/2000/svg" width="37.022" height="36.018" viewBox="0 0 37.022 36.018"><path d="M569.914,907.734l-11.234-1.672-5.021-10.375a1.27,1.27,0,0,0-1.718-.587,1.294,1.294,0,0,0-.575.587l-5.034,10.375L535.1,907.734a1.3,1.3,0,0,0-1.084,1.481,1.316,1.316,0,0,0,.379.753l8.121,8.076-1.922,11.408a1.3,1.3,0,0,0,1.054,1.5,1.259,1.259,0,0,0,.8-.131l10.055-5.384,10.042,5.384a1.269,1.269,0,0,0,1.735-.53,1.33,1.33,0,0,0,.135-.842L562.5,918.044l8.134-8.089a1.326,1.326,0,0,0,.034-1.848,1.271,1.271,0,0,0-.739-.387Zm-9.722,8.925a1.322,1.322,0,0,0-.371,1.149l1.652,9.487-8.352-4.482a1.257,1.257,0,0,0-1.191,0l-8.39,4.482,1.588-9.487a1.322,1.322,0,0,0-.372-1.149l-6.725-6.717,9.351-1.385a1.284,1.284,0,0,0,.961-.719l4.163-8.624,4.176,8.624a1.284,1.284,0,0,0,.961.719l9.325,1.385Z" transform="translate(-534.001 -894.962)" fill="#231f20"/></svg>