<svg height="36.013" viewBox="0 0 59.998 36.013" width="59.998" xmlns="http://www.w3.org/2000/svg"><path d="m812 1440.835v-15.658c0-5.99 8.356-10.175 20.323-10.176h38.766a.9.9 0 0 1 .8.482.951.951 0 0 1 -.029.948l-2.281 3.683 2.24 3.05a.95.95 0 0 1 .009 1.108l-2.255 3.182 2.288 3.691a.952.952 0 0 1 .029.948.9.9 0 0 1 -.8.483h-16.613v8.26c0 5.992-8.36 10.177-20.33 10.177-12.42-.001-22.147-4.471-22.147-10.178zm1.819 0c0 4.016 8.168 8.314 20.33 8.314 12.024 0 18.512-4.284 18.512-8.314v-9.145c0-.016-.009-.031-.009-.048s.008-.031.009-.047v-2.162c-3.241 3.551-10.525 5.912-19.421 5.912s-16.18-2.361-19.421-5.912zm0-15.658c0 5.131 10.081 8.307 19.421 8.307s19.421-3.176 19.421-8.307c0-4.015-8.169-8.313-20.33-8.313-12.031 0-18.514 4.284-18.514 8.313zm40.66 0v5.534h14.956l-1.733-2.8a.95.95 0 0 1 .032-1.047l2.223-3.136-2.214-3.015a.951.951 0 0 1 -.041-1.059l1.733-2.8h-24.187c5.621 1.837 9.229 4.846 9.229 8.323zm-37.907.2a.93.93 0 0 1 -.031-.244c.008-1.965 5.291-5.471 15.79-5.471 10.417 0 16.519 3.35 17.47 5.144a.954.954 0 0 1 .049.784c-.677 1.779-6.243 5.1-16.609 5.1-9.841 0-16.105-3.144-16.671-5.317zm1.886-.284c.869 1.029 5.52 3.737 14.782 3.737 8.692 0 13.359-2.4 14.6-3.538-1.4-1.21-6.476-3.766-15.51-3.766-8.799-.005-13.061 2.55-13.874 3.563z" fill="#fff" transform="translate(-811.998 -1415)"/></svg>