<svg height="47" viewBox="0 0 46.999 47" width="46.999" xmlns="http://www.w3.org/2000/svg"><path d="m479 1423.763v4.764s0 .009 0 .013v13.1c0 1.931 2.8 3.24 6.48 3.891v3.045c0 1.673 2.9 2.422 5.777 2.422 2.779 0 5.769-.758 5.769-2.422v-3.044c3.685-.651 6.485-1.959 6.485-3.891 0-.005 0-.009 0-.014v-12.65c2.2-1.08 8.276-5.982 8.509-9.042a4.313 4.313 0 0 1 1.89-2.433l4.9 32.821a.712.712 0 0 0 1.409 0l5.68-38.016a7.481 7.481 0 0 0 -1.646-6.057 6.113 6.113 0 0 0 -9.476 0 7.478 7.478 0 0 0 -1.647 6.05l.539 3.607c-1.6 1.15-2.965 2.526-3.072 3.921-.173 2.267-5.016 6.226-7.088 7.538v-15.74c.006-.055.008-.1.008-.134 0-2.394-4.149-3.472-6.488-3.891v-1.168c0-1.667-2.993-2.426-5.773-2.426s-5.773.759-5.773 2.426v1.168c-2.336.419-6.483 1.5-6.483 3.891v.011zm35.537-11.681a6.061 6.061 0 0 1 1.323-4.908 4.691 4.691 0 0 1 7.309 0 6.063 6.063 0 0 1 1.322 4.915l-4.976 33.31-4.306-28.82c.644-.417 1.33-.817 2.01-1.179.218 1.7.795 3.183 1.915 3.183 1.49 0 2.02-2.632 2.02-4.886s-.529-4.887-2.02-4.887-2.019 2.632-2.019 4.887v.152c-.641.325-1.384.728-2.137 1.19zm4.956 2.221a.7.7 0 0 0 .224-.155 6.872 6.872 0 0 1 -.584 2.884 6.08 6.08 0 0 1 -.551-2.317c.318-.149.628-.289.918-.415zm-.943-1.142a6.739 6.739 0 0 1 .582-2.8 6.713 6.713 0 0 1 .582 2.785.71.71 0 0 0 -.781-.151c-.071.031-.203.088-.378.166zm-27.3 31.426c-.186 0-.364-.006-.547-.009 2.516-2.135 5.334-4.8 8.4-7.938 1.131.366 2.122.679 2.935.932-2.584 2.664-4.879 4.9-7 6.806a33.667 33.667 0 0 1 -3.779.21zm-6.63-.686a92.864 92.864 0 0 0 9.937-8.779c1.07.368 2.087.71 3.039 1.024a112.778 112.778 0 0 1 -9.008 8.338 26.692 26.692 0 0 1 -3.959-.584zm-4.2-14.244c1.28.573 2.6 1.135 3.949 1.682-1.438 1.307-2.743 2.423-3.949 3.382zm0 6.869c1.61-1.226 3.389-2.737 5.417-4.6.953.375 1.908.74 2.856 1.095a71.419 71.419 0 0 1 -8.272 6.949zm5.563-6.076h-.01c-1.9-.754-3.778-1.543-5.552-2.351v-3.145a185.665 185.665 0 0 0 21.66 8.254v2.889c-3.506-1.102-9.892-3.186-16.09-5.647zm-5.563-7.085v-3.085c6.47 3.452 16.049 6.835 21.66 8.689v2.739a176.981 176.981 0 0 1 -21.652-8.342zm0-4.708v-3.2c5.4 3.359 14.539 6.825 21.66 9.261v2.75c-5.817-1.936-15.459-5.377-21.652-8.81zm21.66-.351c-2.6-.893-5.03-1.773-7.262-2.631 2.992-.3 5.692-.99 7.262-2.044zm-10.827-2.451h.14c3.115 1.27 6.709 2.6 10.687 3.959v3.4c-7.341-2.527-16.643-6.1-21.66-9.454v-.119c2.18 1.459 6.523 2.215 10.842 2.215zm-10.827 25.815a69.113 69.113 0 0 0 9.754-8.1c.979.358 1.939.7 2.875 1.03a80.937 80.937 0 0 1 -10.193 8.8c-1.531-.548-2.399-1.19-2.427-1.729zm15.177 6.875c-.12.293-1.592 1.03-4.35 1.03s-4.237-.737-4.353-1v-2.83c.623.078 1.263.138 1.911.182h.012c.8.053 1.615.082 2.428.082a35.607 35.607 0 0 0 4.095-.236h.01c.08-.01.162-.017.242-.027zm1.99-4.575c1.406-1.318 2.893-2.776 4.488-4.4v2.072s0 0 0 .005c-.002.753-1.645 1.709-4.481 2.324zm-1.988-33.681c-.121.294-1.594 1.034-4.354 1.034s-4.233-.74-4.349-1v-2.223a12.822 12.822 0 0 0 8.7 0zm-4.354-4.859c2.76 0 4.233.74 4.354.969-.121.294-1.594 1.034-4.354 1.034-2.745 0-4.214-.731-4.349-.965v-.011c.143-.296 1.612-1.026 4.357-1.026zm-5.773 3.618v1.274c0 1.667 2.993 2.426 5.773 2.426s5.773-.759 5.773-2.426v-1.274c3.246.614 5.01 1.66 5.061 2.421v.022.045c-.11 1.211-4.271 2.894-10.827 2.894-6.6 0-10.818-1.734-10.833-2.933v-.011c.01-.751 1.775-1.816 5.061-2.438z" fill="#fff" transform="translate(-479.003 -1404)"/></svg>