<svg height="33" viewBox="0 0 33 33" width="33" xmlns="http://www.w3.org/2000/svg"><g transform="translate(-26 -10)"><circle cx="42.5" cy="26.5" fill="#231f20" r="16.5"/><path d="m43.207 34.831-1.525-.571-.075-.293a1.79 1.79 0 0 0 -1.1-1.252l-.362-.136a1.725 1.725 0 0 0 -1.626.233l-.238.175-1.525-.571a2.683 2.683 0 0 1 -1.507-1.425 2.807 2.807 0 0 1 -.089-2.1l3.206-9.065a2.7 2.7 0 0 1 1.384-1.551 2.587 2.587 0 0 1 2.043-.1l1.526.572.074.293a1.8 1.8 0 0 0 1.107 1.26l.358.134a1.718 1.718 0 0 0 1.622-.234l.24-.176 1.525.572a2.689 2.689 0 0 1 1.507 1.425 2.807 2.807 0 0 1 .091 2.1l-3.208 9.066a2.7 2.7 0 0 1 -1.383 1.551 2.612 2.612 0 0 1 -1.134.262 2.579 2.579 0 0 1 -.911-.169zm-2.676-3.331.362.136a2.916 2.916 0 0 1 1.707 1.743l.99.371a1.51 1.51 0 0 0 1.189-.057 1.568 1.568 0 0 0 .8-.9l3.208-9.066a1.627 1.627 0 0 0 -.053-1.223 1.562 1.562 0 0 0 -.875-.829l-.99-.371a2.809 2.809 0 0 1 -2.4.209l-.359-.135a2.918 2.918 0 0 1 -1.71-1.747l-.991-.371a1.508 1.508 0 0 0 -1.188.057 1.575 1.575 0 0 0 -.8.9l-3.207 9.067a1.625 1.625 0 0 0 .053 1.222 1.562 1.562 0 0 0 .875.829l.989.37a2.835 2.835 0 0 1 1.423-.385 2.784 2.784 0 0 1 .977.18zm4.62-3.526-5.523-2.194a.582.582 0 0 1 -.321-.744.557.557 0 0 1 .724-.33l5.522 2.194a.58.58 0 0 1 .321.743.559.559 0 0 1 -.522.369.546.546 0 0 1 -.202-.041z" fill="#fff"/></g></svg>