<svg xmlns="http://www.w3.org/2000/svg" width="27.008" height="30.014" viewBox="0 0 27.008 30.014"><path d="M91.772,265.7l-2.743-1.009-.134-.518a3.183,3.183,0,0,0-1.979-2.212l-.65-.239a3.15,3.15,0,0,0-2.928.411l-.43.31-2.743-1.009a4.794,4.794,0,0,1-2.712-2.517,4.872,4.872,0,0,1-.162-3.715l5.772-16.019a4.815,4.815,0,0,1,2.49-2.741,4.755,4.755,0,0,1,3.679-.168l2.744,1.011.134.518a3.2,3.2,0,0,0,1.982,2.215l.645.237a3.139,3.139,0,0,0,2.926-.412l.432-.311,2.745,1.011a4.8,4.8,0,0,1,2.712,2.518,4.874,4.874,0,0,1,.163,3.714l-5.773,16.02a4.834,4.834,0,0,1-4.53,3.2A4.73,4.73,0,0,1,91.772,265.7Zm-4.817-5.891.651.239a5.2,5.2,0,0,1,3.074,3.086l1.783.654a2.759,2.759,0,0,0,2.138-.1,2.791,2.791,0,0,0,1.448-1.592l5.773-16.021a2.831,2.831,0,0,0-.1-2.161,2.789,2.789,0,0,0-1.575-1.464L98.37,241.8a5.136,5.136,0,0,1-4.321.368l-.647-.238a5.206,5.206,0,0,1-3.076-3.086l-1.782-.656a2.757,2.757,0,0,0-2.139.1,2.8,2.8,0,0,0-1.448,1.592L79.184,255.9a2.831,2.831,0,0,0,.1,2.161,2.794,2.794,0,0,0,1.575,1.465l1.78.654A5.178,5.178,0,0,1,85.2,259.5,5.1,5.1,0,0,1,86.955,259.81Zm8.316-6.231-9.94-3.874a1.021,1.021,0,0,1-.579-1.315,1.007,1.007,0,0,1,1.3-.583l9.94,3.875A1.02,1.02,0,0,1,96.574,253a1,1,0,0,1-1.3.583Z" transform="translate(-76.999 -235.982)" fill="#231f20"/></svg>