<svg height="50" viewBox="0 0 49.94 50" width="49.94" xmlns="http://www.w3.org/2000/svg"><g transform="translate(-425.97 -6390)"><ellipse cx="450.94" cy="6415" fill="#fff" rx="24.97" ry="25"/><path d="m446.188 6426.47a13.984 13.984 0 0 0 14.183-13.988c0-.212 0-.425-.014-.636a10.057 10.057 0 0 0 2.487-2.546 10.054 10.054 0 0 1 -2.862.774 4.945 4.945 0 0 0 2.192-2.719 10.1 10.1 0 0 1 -3.165 1.194 5.011 5.011 0 0 0 -3.639-1.554 4.952 4.952 0 0 0 -4.985 4.916 4.833 4.833 0 0 0 .129 1.121 14.22 14.22 0 0 1 -10.275-5.137 4.876 4.876 0 0 0 1.543 6.563 5 5 0 0 1 -2.258-.614v.062a4.935 4.935 0 0 0 4 4.819 5.034 5.034 0 0 1 -2.251.084 4.983 4.983 0 0 0 4.657 3.416 10.093 10.093 0 0 1 -6.191 2.1 10.287 10.287 0 0 1 -1.189-.068 14.259 14.259 0 0 0 7.641 2.208" fill="#231f20"/></g></svg>