<svg height="50" viewBox="0 0 49.94 50" width="49.94" xmlns="http://www.w3.org/2000/svg"><g transform="translate(-611.81 -6391)"><ellipse cx="636.78" cy="6416" fill="#fff" rx="24.97" ry="25"/><path d="m649.446 6409.808a3.24 3.24 0 0 0 -2.3-2.274c-2.027-.537-10.154-.537-10.154-.537s-8.127 0-10.154.537a3.239 3.239 0 0 0 -2.3 2.274 35.561 35.561 0 0 0 0 12.382 3.238 3.238 0 0 0 2.3 2.274c2.027.538 10.154.538 10.154.538s8.127 0 10.154-.538a3.239 3.239 0 0 0 2.3-2.274 35.569 35.569 0 0 0 0-12.382zm-15.11 9.991v-7.6l6.793 3.8z" fill="#231f20"/></g></svg>